<?xml version="1.0" standalone="no"?>
<!DOCTYPE svg PUBLIC "-//W3C//DTD SVG 20010904//EN"
 "http://www.w3.org/TR/2001/REC-SVG-20010904/DTD/svg10.dtd">
<svg version="1.0" xmlns="http://www.w3.org/2000/svg"
 width="992.000000pt" height="992.000000pt" viewBox="0 0 992.000000 992.000000"
 preserveAspectRatio="xMidYMid meet">
<metadata>
Created by potrace 1.14, written by Peter Selinger 2001-2017
</metadata>
<g transform="translate(0.000000,992.000000) scale(0.100000,-0.100000)"
fill="#000000" stroke="none">
<path d="M4750 8384 c-183 -21 -521 -87 -816 -159 -687 -168 -1207 -523 -1569
-1070 -51 -77 -107 -168 -125 -201 l-33 -61 21 -44 c43 -89 50 -183 21 -277
-10 -29 -8 -36 25 -74 53 -61 79 -138 79 -228 0 -143 -72 -259 -201 -322 -60
-30 -75 -33 -157 -33 -78 0 -98 4 -152 29 -68 31 -138 98 -171 162 -41 81 -50
204 -21 282 9 22 7 23 -23 17 -18 -4 -73 -20 -123 -37 -462 -156 -776 -504
-870 -963 -43 -210 -41 -415 5 -625 36 -168 123 -376 177 -426 33 -30 90 -32
125 -4 48 37 61 83 69 245 12 230 47 365 145 554 125 244 346 489 630 699 71
52 98 64 89 40 -13 -35 -57 -367 -71 -538 -22 -261 -22 -743 0 -1035 43 -556
152 -1185 267 -1529 267 -800 893 -1309 1816 -1476 63 -12 136 -22 161 -22 80
-2 141 44 162 123 15 55 4 101 -42 167 -283 409 -451 702 -621 1082 -160 359
-301 770 -381 1110 -65 279 -130 681 -142 883 l-7 102 179 38 c194 41 437 94
1119 241 242 52 775 168 1185 256 410 88 846 183 970 209 124 27 236 51 249
53 22 3 27 -5 63 -109 215 -621 320 -1220 335 -1920 9 -425 -21 -805 -98
-1228 -26 -146 -29 -178 -19 -213 23 -87 121 -147 197 -121 48 16 244 148 373
252 137 111 338 316 432 443 372 501 499 1068 382 1704 -126 683 -379 1443
-679 2035 -118 233 -181 343 -318 553 l-99 152 -32 -23 c-115 -88 -265 -104
-391 -42 -71 34 -147 119 -175 193 -25 65 -29 162 -11 230 11 41 10 45 -17 80
-63 80 -85 147 -84 250 l1 62 -72 54 c-113 85 -240 162 -392 237 -218 107
-395 166 -650 215 -128 25 -164 27 -410 29 -148 2 -286 1 -305 -1z"/>
<path d="M7510 7670 c-82 -11 -230 -40 -230 -47 0 -2 13 -21 30 -41 93 -117
104 -293 24 -414 -13 -21 -24 -41 -24 -46 0 -5 44 -16 98 -26 453 -84 820
-255 1058 -491 108 -108 179 -206 244 -338 68 -137 84 -160 128 -185 67 -37
118 -27 149 31 27 49 24 306 -5 443 -62 289 -189 537 -378 734 -187 194 -406
315 -667 365 -99 20 -324 27 -427 15z"/>
<path d="M6138 5078 c-109 -14 -196 -78 -242 -177 -31 -67 -29 -272 3 -426
120 -576 170 -702 312 -780 48 -26 64 -30 139 -30 73 0 93 4 142 28 64 31 111
80 142 146 18 40 21 64 20 191 -1 127 -5 167 -37 320 -84 394 -135 545 -218
635 -72 78 -153 107 -261 93z"/>
<path d="M3891 4595 c-183 -51 -254 -199 -222 -461 16 -131 95 -494 133 -614
73 -230 173 -332 327 -333 85 -1 145 16 203 59 136 98 158 267 84 624 -72 344
-96 430 -153 543 -79 158 -217 225 -372 182z"/>
</g>
</svg>
