<?xml version="1.0" encoding="utf-8"?>
<!-- Generator: Adobe Illustrator 27.3.1, SVG Export Plug-In . SVG Version: 6.00 Build 0)  -->
<svg version="1.1" id="Layer_1" xmlns="http://www.w3.org/2000/svg" xmlns:xlink="http://www.w3.org/1999/xlink" x="0px" y="0px"
	 viewBox="0 0 360 360" style="enable-background:new 0 0 360 360;" xml:space="preserve">
<style type="text/css">
	.st0{fill:#8D3A3E;}
	.st1{fill:#873F3D;}
	.st2{fill:#894240;}
	.st3{fill:#7A243E;}
	.st4{fill:#7C223F;}
	.st5{fill:#77273B;}
	.st6{fill:#792E40;}
	.st7{fill:#E5A39D;}
	.st8{fill:#E5A49D;}
	.st9{fill:#982C41;}
	.st10{fill:#EA9F9D;}
	.st11{fill:#E5A49C;}
	.st12{fill:#D22044;}
	.st13{fill:#C33245;}
	.st14{fill:#E3A59D;}
	.st15{fill:#C32F41;}
	.st16{fill:#9F2923;}
	.st17{fill:#9D2B23;}
	.st18{fill:#78273A;}
	.st19{fill:#CB2743;}
	.st20{fill:#C52D42;}
	.st21{fill:#B01626;}
	.st22{fill:#EB9E9D;}
	.st23{fill:#AE1726;}
	.st24{fill:#9B2D23;}
	.st25{fill:#AA1E25;}
	.st26{fill:#C42F41;}
	.st27{fill:#D21F44;}
	.st28{fill:#DD0F48;}
</style>
<g>
	<path class="st0" d="M146,126.6c15.3-0.1,30.6-0.5,45.8-0.2c33.3,0.8,66.5,1.9,99.8,2.9c4.5-0.5,8.9-0.4,13.3,0.5
		c1.6,0.3,3.4-0.1,4.5,1.5c0.1,1.9-1.4,2.2-2.7,2.5c-1.9,0.5-3.8,0.4-5.6,1.2c-8-0.2-16.1-0.1-24.1-0.7c-4.2,0.1-8.5-0.1-12.7,0.2
		c-1.9-0.2-3.7-0.7-5.7-0.6c-2.2,0-4.5,0.1-6.7,0.2c-1.7,0.1-3.4-0.3-5.1-0.2c-2.2,0.1-4.5,0.1-6.7,0.2c-3.7,0.3-7.3-0.2-11,0
		c-2.9,0-5.9,0.1-8.8,0.3c-5.7,0.2-11.5,0.3-17.2,0.5c-1,0-1.9-0.2-2.8-0.3c-2.3-0.2-4.7-0.4-7-0.3c-0.9,0-1.7-0.2-2.6-0.2
		c-5.8,0-11.6-0.6-17.5-0.8c-3.4-0.1-4.4,0.5-2.7,3.9c0.9,1.7,1.9,3.7,0.9,5.9c-0.2,0.2-0.4,0.4-0.6,0.3c-2.6-1-4.3,0.2-6.2,1.8
		c-2,1.6-3.3,3.2-3.8,5.6c-0.4,1.8-1.1,3.4-1.4,5.2c-0.1,0.8-0.5,1.5-1.3,1.8c-1.7-0.4-1.2-2-1.6-3.1c-1.1-6.6-2.8-13-3.7-19.7
		c-0.2-1.5-0.9-2.2-2.4-2.3c-1.3-0.1-2.7-0.1-3.7-1.3c-0.6-0.5-1.3-1.1-1.7-1.8C144.3,128.5,144.2,127.3,146,126.6z"/>
	<path class="st1" d="M125.3,128.1c0.2,1.8-1,2.7-2.4,3.3c-18,0.6-36,0.4-53.9-1.5c-1-0.1-2-0.4-2.4-1.6c6-3.6,12.9-2.1,19.3-3.5
		c2.6-0.6,12,0.5,14,0.5C104.7,124.8,125,125.7,125.3,128.1z"/>
	<path class="st2" d="M122.4,131.1c5.8-3.6,0.7-3.7-1.5-4.7c1.9-1.4,18.7,0.1,25.1,0.3c-2.8,2.7,1.6,3.4,1.4,5.4
		c-0.8,1-2,0.6-3.1,0.8c-3.1,0.3-6.1-0.3-9.1-0.5c-3.6-0.2-7.2-0.5-10.8-0.4C123.7,131.9,122.8,132,122.4,131.1z"/>
	<path class="st3" d="M97.3,235.5c-1-0.1-10.7-0.1-14.5-0.1c-0.3-0.8-1-0.9-1.7-1c-2.7-0.3-4.8-1.7-6.7-3.5c-0.6-1-1.7-1.5-2.1-2.7
		c0-0.2,0-0.5,0.1-0.7c8.6-0.8,17,1,25.5,1.2c6.3,0.2,12.4-0.8,18.5-1.5c10.7-0.8,21.4,0.2,32.1-1c4.9,0,9.8-0.5,14.7-0.1
		c5.5-0.7,11-0.1,16.5-0.2c3.4-0.1,6.9,0.2,10.3,0c5.9-0.2,11.8,0.6,17.7,0.7c4,0,8-0.2,12-0.2c1.2,0,2.4-0.2,3.3,0.8
		c0.8,1.2,2.7,1.8,2.2,3.8c-0.6,0.8-5.5,0.8-7.1,0.9c-4,0.1-8,0.2-12.1,0.4c-1.2,0-2.4-0.1-3.5-0.4
		C194.8,232.1,102,236.4,97.3,235.5z"/>
	<path class="st4" d="M334.5,163.7c0.2,0.7,0.5,1.3,0.7,2c5.1,18.7,6.8,36.9-6.6,53.7c-8.4,10.6-20.6,8.8-31.4,10.3
		c-11.3,1.5-22.9,0.6-34.4,0.7c-1.6-0.5-2-1.8-2-3.2c0-1.6,1.4-2.1,2.6-2.6c0.7-0.4,1.5-0.6,2.4-0.8c3.7-0.3,7.5,0,11.2-0.7
		c9.1-0.6,18.3-0.2,27.4-0.2c1.3,0,2.5,0,3.7-0.1c1.2,0.1,2.3,0.2,3.5,0.3c3.3,0.2,6-0.7,8.1-3.4c1.7-2.2,3.9-4,6-5.6
		c5.2-3.9,7-9.5,8.3-15.4c0.8-3.8,0.9-7.6,0.8-11.5c-0.3-4.1,0.9-8.4-1.1-12.4c-0.4-2.9-0.4-5.9-0.8-8.8
		C332.9,165.2,332.4,163.5,334.5,163.7z"/>
	<path class="st5" d="M74.8,230.8c2.5,1.1,5,2.3,7.6,3.2c1.2,0.4,0.8,0.8,0.3,1.4c-1.3,0-2.5-0.1-3.8-0.1
		c-7.7,0.1-22.6-5.2-22.6-5.5c-0.1-0.1-4.5-2.1-6.2-3.5c-0.8-0.7-1.5-1.6-2.6-1.9c-4-2.1-6.6-5.7-9.3-9c-0.2-0.2-0.4-0.5-0.7-0.7
		c-1.6-1.9-3.3-3.7-4.7-5.7c-3.7-5.2-7.3-10.5-10.8-15.9c-0.6-0.9-0.7-2.2-1-3.3c0.3-2.9,0.6-5.8,1-8.7c1.3-0.9,2.1-0.1,2.3,0.9
		c1.7,13.9,12.5,22.2,20.2,32.3c2.5,3.2,4.8,6.7,8.7,8.5c0.8,0.4,1.5,1,2.1,1.6c2.7,4.5,6.7,5.8,11.7,5.3
		C69.5,229.3,72.4,229.2,74.8,230.8z"/>
	<path class="st6" d="M264.1,224.9c-3.6,1.1-3,3.2-1.2,5.5c-10.1,0.2-37.9,1.2-40.3,1.2c-0.3,0,0.8-3.3,0.1-4.6
		c1.5-1.3,3.2-0.6,4.7-0.5c11.4,0.5,22.6-0.6,33.8-2C262.2,224.3,263.2,224,264.1,224.9z"/>
	<path class="st7" d="M190.1,226.4c-8.9,0.1-17.8,0.2-26.7,0.3c-0.3-2.9,2.4-4.4,3.4-6.8c8.1-19.9,7.9-40.7,6.7-61.6
		c-0.3-5.2-2.1-10.2-1.9-15.4c-0.9-2.8-1.6-5.7-2.7-8.5c-0.6-1.5-0.4-1.6,1.1-1.6c7.1,0.3,14.1,0.6,21.2,0.9
		c4.1,5.1,5.9,11,5.3,17.5c0.9,1.9,2.1,3.7,2.9,5.6c1.1,2.6,0.6,4.9-1.2,7c-1.6,1.8-3.3,3.4-4.5,5.4c-0.5,0.8-1,1.6-0.4,2.6
		c0.9,1.7,0.3,3.1-0.9,4.5c-2.2,2.5-2.1,2.8,0.3,5.2c1.1,1.1,2.4,2.1,3.3,3.3c2,2.5,2.5,5.6,0.7,7.9c-2.8,3.5-3,7.7-3.5,11.8
		c-0.2,2-0.2,4.1-1.1,6c-0.5,1.3-0.1,2.3,0.9,3.2c1.2,1.1,2.3,2.4,3,3.9c1.5,3.8-0.6,5.1-4.2,7.9
		C191.2,225.9,190.5,225.9,190.1,226.4z"/>
	<path class="st8" d="M148.6,226.6c-0.9,0.2-1.8,0.6-2.7,0.6c-6.8,0.1-13.5,0.1-20.3,0.2c-3.1,0-6.1,0.2-9.2,0.3
		c-1-2,0.4-2.7,1.9-3.1c1.3-0.4,2.7,0.1,4,0c2.4-0.3,6.1,1,6.4-2.1c0.3-2.7-3.7-1.9-5.7-2.7c-1.5-0.6-3.9,0.4-4.1-2.1
		c-0.2-2.5,1.7-3.7,3.7-4.6c1.2-0.5,2.5-1,3.7-1.6c3.5-1.7,10.1-2.1,10.1-4.7c0-3.3-6-4.3-9.4-6.2c-3.3-1.8-3.6-3.9-2.3-6.9
		c1-2.5,1.3-5.2,2-7.8c0.8-2.8,1.1-5.7,1.5-8.5c0.2-2.1,1.4-3.1,3.4-3.5c2.7-0.5,5.4-0.6,8.2-0.5c2.6,0.1,4.5-0.6,5.4-3.3
		c1.4-1.6,0.4-2.5-0.9-3.4c-2.1-1.4-2.1-2.3,0.2-3.4c1.4-0.7,2.4-1.6,3-3.1c0.7-1.7,2.1-2.7,3.6-3.6c1.4-1,3.2-1.3,4.7-2.2
		c0.6-0.3,1.2-0.3,1.5,0.5c0.3,1.1,0.5,2.2,0.8,3.3c2,5.1,1.1,10.5,1.2,15.8C159.3,192,155.6,209.6,148.6,226.6z"/>
	<path class="st9" d="M148.6,226.6c0.8-2.7,1.5-5.4,2.3-8.1c3.7-11.4,6.7-23,7.2-35c0.3-8.5,0-17-0.1-25.5
		c2.5-4.4,1.3-10.3,6.7-13.7c2.5-1.6,4.3-2,6.8-1.3c4.8,27.3,6.1,54.3-6,80.4c-0.6,1.2-1.5,2.3-2.2,3.5
		C158.4,226.7,153.5,226.6,148.6,226.6z"/>
	<path class="st10" d="M277.1,133.9c8,0.3,15.9,0.5,23.9,0.8c1.1,0.2,1.6,1,2.1,1.9c1.4,2.7,2.9,5.4,4,8.3c1.8,4.4,3.6,8.9,4.4,13.7
		c0,2.1-0.5,3.9-2.2,5.3c-1.2,0.9-2.7,0.9-3.9,1.5c-1,0.5-2,0.9-2.9,1.5c-1.1,0.8-2.4,1.6-2.3,3.1c0.2,1.6,1.8,1.7,3.1,2
		c0.8,0.2,1.7,0.3,2.2,1.2c-0.3,1.9-1.9,3.3-4,3.3c-0.8,0-1.6-0.1-2.3-0.1c-2.4,0-4.2,0.9-5.5,3c-0.8,1.3-1.6,2.7-2.7,3.8
		c-1.8,1.8-2.5,1.8-4.5,0c-0.3-0.4-0.5-0.8-0.6-1.3c0.1-7.1-0.9-14.1-2.1-21.1c-1-7.5-2.9-14.8-5.6-21.8
		C277.4,137.3,276.4,135.7,277.1,133.9z"/>
	<path class="st11" d="M157.3,154.7c-2.3,1-4.6,1.8-6.7,3.1c-1.3,0.8-2.5,1.9-2.8,3.8c-0.2,0.9-1.8,1.6-2.8,2.3
		c-0.5,0.4-1.1,0.6-1.6,0.9c0.5,0.4,1,0.8,1.6,1.1c2.1,1.2,2.3,2.6,0.7,4.6c-0.2-0.1-0.4-0.2-0.4-0.3c0.1-3.2-2.3-3.4-4.5-3.7
		c-1.7-0.2-3.4-0.1-5.2-0.3c-0.9-0.1-1.9,0-2.6-0.9c-0.1-0.3-0.1-0.6-0.1-0.9c0-0.4,0.2-0.9-0.2-1c-0.4-0.2-0.6,0.3-0.9,0.6
		c-0.4,0.4-0.9,0.9-1.6,0.8c-0.7-3.4-2.2-7.4,4-6.8c3.5,0.3,5.9-1.2,7.4-4.3c1.1-0.7,0.5-1.4-0.1-2.1c-0.8-0.8-1.2-0.2-1.6,0.4
		c-2.9-0.3-5.7-0.7-8.6-0.7c-0.8,0-1.5-0.4-1.3-1.5c1.5-0.9,3.2-1,4.9-1.1c3.7-0.2,3.7-0.3,2-3.4c-0.2-2-1.9-2-3.2-2.5
		c-1.7-0.6-3.7-0.4-5.4-1.2c-0.7-0.5-1.3-1-1.1-1.9c1.8-1.4,3.2,0.5,4.8,0.5c3,0,7.1,4.4,8.4-2.4c0.3-1.4,2.1-1.5,3.6-1.2
		c1.4,0.3,2.8,2.8,3.6,1.3c0.9-1.6-0.2-3.7-2.6-4.2c-0.4-0.1-0.7-0.6-0.6-1.1c1-0.1,2-0.1,3-0.2c5.5-1,6.4,2.3,6.9,6.8
		C155,144.2,156.3,149.4,157.3,154.7z"/>
	<path class="st12" d="M277.1,133.9c3.1,8.8,6.3,17.6,7.3,26.9c-1.3,0.1-1.1-1.3-1.9-1.8c-0.8,3.2-0.8,7.2-6.1,4.9
		c-2.2-0.9-1.7,2.8-3.6,3c-2.4-3.8-2.1-8.2-2.7-12.4c-0.9-5.8-2.8-11.2-4.3-16.8c-0.4-1.1-0.8-2.3-1.3-3.4
		C268.7,134.1,272.9,134,277.1,133.9z"/>
	<path class="st13" d="M302.6,137c-0.6-0.8-1.1-1.5-1.7-2.3c2.3-2.2,6.5,0.3,8.2-3.2c1.8,0.6,3.6,1.2,5.4,1.8
		c-0.3,1.2-1.4,1.1-2.3,1.3c-1.7,0.3-3.4,0.5-5.1,0.6C305.5,135.2,303.9,135.7,302.6,137z"/>
	<path class="st14" d="M229.2,133.8c-2.9,1.4-5.8,1.6-8.8,0.2C223.4,133.9,226.3,133.9,229.2,133.8z"/>
	<path class="st14" d="M258.7,133.5c-2.2,2.1-4.5,1.8-6.8,0.1C254.2,133.6,256.4,133.5,258.7,133.5z"/>
	<path class="st14" d="M247,133.5c-2.2,2.2-4.5,1.5-6.7,0.2C242.5,133.7,244.7,133.6,247,133.5z"/>
	<path class="st14" d="M200.4,134.2c-2.4,2.2-4.7,0.3-7-0.3C195.7,134,198,134.1,200.4,134.2z"/>
	<path class="st15" d="M129.1,141.2c2.8,0.6,5.7,1.1,8.4,2c1.8,0.6-0.2,1.1-0.4,1.7c-2,2-4.6,2.4-7.3,2.4
		c-9.7,3.1-12.2,12.4-16.7,19.9c-0.8,1.3-3.1,3-1.2,5c3.3,3.3,5.7,7.9,11.4,8.2c2.5,0.1,3.2-2.8,5.4-2.9c-0.5,2.8-1,5.6-1.4,8.4
		c-1.9-1.3-2.7-0.9-3.2,1.5c-0.7,3.2-2.6,2.1-4,0.5c-5.4-6-10.7-8.4-16.3,0c-1.7,2.6-3.7,0.4-5.6-0.4c-9.9-4.3-13.8,5.3-20.2,8.9
		c-1.8,1-3.1,4.6-5.5,2.4c-2.9-2.7-7.9-4-6.3-10.2c1.3-5.2,1.2-10.7,1.2-16.2c-0.1-12.4,1.6-25-4.1-36.6c-1.2-2.4-2.8-4.4-6-2.6
		c-1-0.5-1.9-1.1-1.9-2.4c3.7-0.8,7.5-1.6,11.2-2.4c1.9,0.6,3.8,1.6,5.7,1.7c6.7,0.4,13.5,0.6,20.2,0.8c9.9,0.2,19.9,0.3,29.8,0.5
		c0.7,0.2,1.3,0.4,2,0.6c1.1,0.4,1.2,1.3,1.3,2.3c-0.1,0.2-0.2,0.4-0.4,0.6c-0.5,0.3-1.3-0.1-1.2,1.4c0.1,1.9,0.2,3.4,1.9,4.4
		c0.3,0.1,0-0.1,0.2,0.2C127.4,142,127.4,142,129.1,141.2z"/>
	<path class="st16" d="M55.4,130.6c0.8,0.8,1.7,1.6,2.5,2.4c2.2,0.3,2.5,2.1,3.1,3.7c1.3,3.3,1.8,6.8,2.7,10.2
		c0.6,2.3,1.4,4.6,1.2,7c-0.1,0.8,0.1,1.6-0.7,2.1c-0.9,0.1-1.7-1.7-2.7,0c-1,1.6-1.3,3.8-0.3,4.8c0.8,0.9,1.2,0.2,1.4-0.5
		c0.3-1.1,0.1-2.4,1.4-3.1c0.4,0,0.6,0.2,0.8,0.5c0.1,0.2,0.2,0.4,0.2,0.6c0,3.3-0.3,6.6,0,9.8c0.3,7.6,0.4,15.2-1.3,22.7
		c-1,4.2-2.2,8.2-3.5,12.2c-0.5,1.4-1.7,3.1-0.2,4.4c1.3,1.2,2.8-0.1,4.1-0.7c0.8-0.3,1.6-0.6,2.5-0.8c1-0.2,2-0.8,2.9,0.1
		c0.9,0.9,0.5,2.1,0.1,3.1c-0.6,1.4-0.8,2.9-1.1,4.3c-0.3,2,0,3.8,1.7,5.1c0.4,0.5,1,0.9,1,1.5c-0.2,2.6,0.9,5,1.4,7.5
		c-0.1,0.1-0.2,0.2-0.3,0.4c-0.5,0.3-1,0.2-1.5,0.1c-1.6-0.8-3.3-1.5-4.3-3.1c-0.5-0.8-1.3-0.7-2.1-0.8c-3.1-0.3-6-0.9-8.4-3.2
		c-2-1.9-2.8-4.1-3-6.7c0-1,0.2-1.9,0.9-2.6c2.7-2.9,2.9-6.7,3.4-10.4c0.2-1.2-0.5-1.5-1.5-1.6c-1.6-0.1-3.1-0.1-4.7-0.2
		c-1.6-0.1-2.7-0.8-3.1-2.4c-0.5-1.7-1.6-2.8-3-3.8c-3.7-2.6-5.4-6.5-6.1-10.8c-0.3-1.8,0.3-3.5,1.2-5c2.2-3.4,1.1-7.4,6.5-10.4
		c1.3-0.7,2.8-1.8,2.6-3.2c-0.2-1.3-2.3-1.2-3.4-2.2c-3-2.8-6.1-5.5-8.9-8.4c-2-2.1-2.5-4.5-1.1-7.1C41.1,139.3,47,133.3,55.4,130.6
		z"/>
	<path class="st17" d="M35.9,146.1c-1,4.4,1.5,7.1,4.6,9.5c2.9,2.3,4.8,5.7,8.6,6.8c0.7,0.2,1.3,1,2,1.4c-0.5,0.5-0.9,1-1.4,1.4
		c-11.2,7.7-11.5,18.9-2.9,28.7c3.4,3.9,6.3,4.3,10.4,5.1c3.1,0.5,0.8,3.7,0.5,5.4c-0.7,3.7-3.4,7.2-3.3,10.7
		c0.1,6.5,5.4,7.4,10.8,8.1c2.2,0.3,4.2,2.8,6.3,4.2c-0.7,1-1.7,0.6-2.6,0.6c-3.6-0.1-7.2-0.9-10.7-1.5c-1.2-0.2-2-1.2-3.1-1.5
		c-0.7-0.6-1.4-1.3-2.1-1.9c-5-4.4-9-9.8-13.4-14.7c-4-4.4-7.9-8.9-11-14c-1.5-2.4-2.7-4.9-3.6-7.6c-0.7-2.1-0.6-4.2,0.5-6.2
		c3.1-5.6,3.6-11.8,3.9-18.1c0.1-1.5-1-2.6-1-4.1C30.8,154.4,33.3,150.2,35.9,146.1z"/>
	<path class="st18" d="M28.3,158.5c3.8,5.9,2.2,12.6-0.5,17.6c-6.3,11.9,1.6,18.8,7.4,26.5c5.5,7.2,11.7,13.8,17.6,20.6
		c-7.1-3-9.9-10.2-14.6-15.3c-6.8-7.4-13.8-15-14.6-25.9c0-0.3-1.1-0.6-1.7-0.9C22.4,173,24.4,165.5,28.3,158.5z"/>
	<path class="st8" d="M125.4,134.4c0.1-0.1,0.1-0.3,0.2-0.4c2.9-2.6,7.1,0.7,9.8-2.2c3,0.2,6.1,0.3,9.1,0.5c0.5,2.1,3.6-0.3,4.1,3
		c1,6.9-1.8,3.4-4.2,1.9c-1.2-0.8-3-0.8-3.3,0.5c-2.6,11.8-8.6-0.3-12.5,1.9c-0.3,0.1-0.7-0.1-1.1-0.2
		C125.9,138.1,125.2,136.4,125.4,134.4z"/>
	<path class="st11" d="M135.4,131.8c-2.5,4.4-6.8,0.5-9.8,2.2c-0.4-0.8-0.8-1.6-1.1-2.3c0.3-0.1,0.7-0.4,1-0.4
		C128.8,131.4,132.1,131.6,135.4,131.8z"/>
	<path class="st19" d="M310.9,158.6c-1.4-4.5-2.8-8.9-4.3-13.4c-0.1-1.1,0.5-1.8,1.3-2.3c2.2-1.5,3.9-3.4,4.7-6.1
		c0.7-2.2,2.4-2.7,5-1.7c0.9,1.2,1.1,2.7,0.8,4c-1.6,8.7,4.4,8.9,10.3,9.4c1.9,5,3.9,10.1,5.8,15.1c-2,3.7,0.4,7.4,0,11.1
		c-0.4,0.8-1.2,1.2-1.8,0.7c-6.5-6.1-12.6-4-18.6,0.9c-2.8-1.7-6.1-2.4-9.2-3.5c-2.2-0.5-6-0.2-5.6-2.9c0.7-4.7,5.5-5.2,9.4-6.4
		C311.4,162.1,311.4,162,310.9,158.6z"/>
	<path class="st19" d="M328.7,148.6c-1,1.5-2.2,0.4-3.4,0.4c-10.2-0.2-7.1-7.9-7.7-13.5c0.3-0.4,0.7-0.4,1-0.4
		C324,138.1,326.4,143.2,328.7,148.6z"/>
	<path class="st20" d="M318.6,135.1c-0.3,0.1-0.7,0.3-1,0.4c-3-1-3.9,0.4-5,3.2c-1.1,2.6-3.9,4.4-6,6.5c-1.3-2.7-2.7-5.5-4-8.2
		c1.9-4.4,6.1-1.7,9-3.1c0.9-0.4,1.9-0.5,2.9-0.7C315.9,133.8,317.3,134.5,318.6,135.1z"/>
	<path class="st21" d="M72.7,227.5c-3-2.2-0.8-6.1-2.9-8.6c6.1-4.2,8.1-11.1,11.2-17.3c0.9-1.8,2.2-3.4,4.5-3.1
		c1.2,0.1,1.1,1.3,1,2.3c-1.2,3.2-2.9,6.2-3.8,9.6c-0.8,3.1,0,5.2,2.8,6.3c2.9,1.2,4.3-0.8,5.6-2.9c2.4-4,2.4-8.8,3.9-13.1
		c1-2.3,0.9-5.4,3.3-6.8c2.3-1.3,5.2-2.6,7.6-1.2c2.5,1.4,0.5,4,0.2,6c-0.5,4.1-2.5,8-2.5,12.2c0,1.4,0.2,2.9,2,3.2
		c1.7,0.3,2.9-0.4,3.6-2c2.3-4.6,2.8-9.7,4-14.5c2-8.2,7.2-5.4,12.1-4c-1.1,4.2-1.1,4.2,2.6,6.4c3,1.8,6,3.4,8.9,5.1
		c0.6,0.4,1,1.1,1.5,1.6c-0.6,0.5-1.1,1.2-1.8,1.4c-3,1.3-6.1,2.4-9.2,3.6c-1.7,0.7-3.5,1.4-5.2,2.2c-0.9,0.4-1.7,1.1-2.3,1.9
		c-1.1,1.5-0.5,2.6,1.3,2.8c2.1,0.3,4.2,0.5,6.2,1.1c1.1,0.4,1.9,1.6,2.8,2.4c-1.1,0.9-2,2.5-3.2,2.7c-2.4,0.4-4.8,0.3-7.3,0.1
		c-2.1-0.2-3.2,0.5-3.3,2.6c-11.8,3-23.6,1.6-35.4,0.5C78.3,228,75.5,227.7,72.7,227.5z"/>
	<path class="st18" d="M54.9,225.1c5.5,0.8,11,1.6,16.5,2.5c0.3,0.1,0.7,0.2,1,0.3c0.8,1,1.6,1.9,2.4,2.9
		C68.2,228.9,59.6,233.5,54.9,225.1z"/>
	<path class="st22" d="M304.9,172.9c3.4,0,6.5,0.5,9,3.2c1.4,1.8,0.9,3.9,0.8,5.9c-0.2,4.9-0.2,9.9-0.8,14.8
		c-0.5,8.1-2.5,16-4.8,23.8c-0.3,1-0.4,2-1.4,2.6c-10.2,0.2-20.5,0.3-30.7,0.5c-0.1-0.6,0.2-1.1,0.4-1.6c3.1-5.5,5.1-11.5,6.3-17.7
		c1.7-6.2,2.2-12.5,2.1-18.9c0-1.1-0.4-2.2,0.6-3.1c2.3,2,2.4,2.1,4.3-0.3c0.7-0.8,1.4-1.7,1.8-2.7c1.4-3.5,5.1-4.2,8.3-3.7
		C302.7,175.9,304.7,174.6,304.9,172.9z"/>
	<path class="st23" d="M313.3,196.5c0.2-6.8,0.4-13.6,0.6-20.5c6-5.6,12.1-7.9,18.8-1.2c0.3,0.3,1.2-0.1,1.8-0.1c2.1,3.8,1,8,1,12
		c-1.7,10.4-11.9,17-19.7,12.7C314.6,198.8,313.6,198,313.3,196.5z"/>
	<path class="st24" d="M313.3,196.5c8.1,7.4,14.8,4.5,22.2-9.8c2,13.7-6.1,30-18.2,36.2c-3,1.5-6.4,1.4-9.6,0.2
		C310.3,214.4,312.5,205.6,313.3,196.5z"/>
	<path class="st25" d="M284.3,204.2c-1.3,6.9-3,13.6-7.3,19.4c-3.7,0.2-7.4,0.4-11,0.6c1.8-6.5,3.7-13.1,5.5-19.6
		c0.8-1.4,1.6-0.6,2.2,0c1.6,1.8,3.1,1.5,5,0.5C280.3,204.3,282.1,202.8,284.3,204.2z"/>
	<path class="st14" d="M267,222.5c1.6-5.9,3.5-11.8,5-17.7c0.2-1.2,0.7-2.3,0.1-3.5c-0.8-1-1.1-2.2-0.9-3.5c0.1-0.9,0.3-1.9,0.1-2.8
		c-0.5-2-0.7-3.9,1.2-5.4c0.2-0.2,0.4-0.6,0.3-0.9c-0.8-3.3-0.2-6.6-0.6-9.9c-0.1-0.7-0.1-1.5-1-1.7c-0.9-0.3-1.5,0.3-2,1
		c-1,1.5-2.5,2.4-3.8,3.5c-0.7,0.7-1.6,1-2.6,0.8c-2.7-0.5-6-5.8-5.2-8.4c0.5-1.8,1.6-3.4,2.2-5.2c1-2.7,1.6-2.9,4.4-2.4
		c2.2,0.4,4.3-0.4,5.9-1.8c1.6-1.4,1.2-3.4,0.5-5.1c-1-2.4-1-4.9-1.6-7.4c-0.9-3.7-0.5-7.7-2.4-11.2c-0.6-1.1-0.7-2.2-0.4-3.4
		c-0.2-1.3-0.2-2.7-1.7-3.4c-1.9-0.3-3.9-0.5-5.8-0.8c-2.2,0.9-4.5,0.9-6.8,0.1c-1.7,0-3.3,0-5-0.1c-2.2,0.9-4.5,0.7-6.7,0.2
		c-3.7,0-7.3,0.1-11,0.1c-2.9,0.6-5.8,0.8-8.8,0.2c-6.7,0.1-13.4,0.1-20.1,0.2c-2.4,0.9-4.7-0.1-7-0.3c-0.8-0.1-1.5-0.1-2.3-0.2
		c2.4,5.5,5.7,10.8,4.5,17.3c9.7,9.9-4.7,16.1-4.3,24.8c0.1,2.1-2.1,4.2,0.7,6.3c5,3.7,5.1,7.2,2.6,13.4
		c-2.8,6.8-10.2,17.4-2.2,24.4c1-0.2,2.1,0,3.2,0.2c-0.2,1.1-0.8,2.1-2.1,2.9c-1.3,0.8-2.3,2.2-3.4,3.3c4.6,0.3,9.2,0.7,13.9,0.8
		c6.2,0.1,12.5-0.1,18.7-0.2c1.2,0.1,2.3,0.2,3.5,0.2c2.8,0,5.5,0.1,8.3,0c3.4-0.1,6.9-0.1,10.3-0.4c6.5-0.5,12.9-1.3,19.4-1.9
		c0.6-0.2,1.3-0.4,1.9-0.7C266.8,224,266.8,223.2,267,222.5z"/>
	<path class="st26" d="M86,200.9c-0.2-0.7-0.4-1.4-0.5-2c-1.2,0.9-2.8,1.6-3.5,2.8c-3,5.1-5.7,10.5-8.7,15.6
		c-0.5,0.9-2.2,1.1-3.4,1.7c-3.4-2.4-1.6-5.6-1.3-8.6c0.2-1.3,0.5-2.6,0.8-3.9c-1.6,0.3-3.2,0.4-4.7,1.1c-1.7,0.7-3.6,2.2-5.2,0.8
		c-1.8-1.4-0.5-3.4,0.2-5c4.5-11.4,5.6-23.2,5.1-35.3c0.1-3.2,0.5-6.5,0.1-9.7l0,0c0.4-3.8,0.6-7.5-1.3-11
		c-2.1-4.6-1.4-10.3-5.4-14.2c0.5-2.6,0.8-2.7,2.9-1.1c3.2,2.3,4.8,5.4,5.2,9.3c0.1,0.8,0.1,1.6,0.5,2.3c1.3,2.4,1.2,5.1,1.5,7.7
		c0.3,2.6,0.7,5.1,1,7.7c0,0.4,0.2,1,0.2,1c-3.1,0.9-1,3.4-1.2,4.9c-0.5,3-0.4,6.1,0,9.1c0.6,4.3-1.4,8.4-0.4,12.7
		c0.2,1-0.5,2.3-1,3.3c-0.6,1.3-0.4,2.2,0.6,3.2c1.7,1.6,3.5,3.2,5.2,4.8c1.1,1.1,2,1.1,3.2-0.1c1.7-1.8,3.6-3.6,5.5-5.2
		c3-2.4,6.1-4.7,9.1-6.9c0.5-0.4,1.3-0.4,2-0.5c3-0.1,5.8,0.7,8.2,2.6c1.1,0.9,1.9,0.7,2.8-0.3c2-2,4.1-3.9,6.1-5.9
		c1.6-1.5,2.9-1.5,4.5-0.1c2.5,2.1,5,4.2,7.5,6.4c1,0.9,1.6,1.3,2-0.4c0.2-0.8,0.3-1.7,0.5-2.5c0.2-0.7,0.7-1.3,1.1-1.9
		c0.5,0.4,1,0.8,1.4,1.3c0.4,0.4,0.6,0.9,1,1.3c-0.6,2.6-1.3,5.2-1.9,7.8c-14.4-4.2-11.1,8.2-13.9,14.8c-1.2,3-1.4,7.6-6.3,6.3
		c-4.2-1.2-2.3-4.9-1.8-7.8c0.4-2.2,1.6-4.4,1.6-6.6c-0.1-2.5,3.5-6.4,0-7.3c-5.3-1.3-8.7,2.2-9.3,7.8c-0.9-0.1-1-0.9-1.4-1.4
		c-0.8-1.3-1.8-2.3-3.4-2.7c-2.6-0.6-2.6-0.6-3.1,1.9C87.6,199.8,87.3,200.8,86,200.9z"/>
	<path class="st26" d="M128.8,177.4c-2.1,3.3-5.5,5.1-8.7,3.3c-4-2.2-8.3-5.5-9.5-9.7c-0.7-2.4,2.4-6.3,4.4-9.1
		c3.9-5.4,5.8-12.6,13-15.2c0.6-0.2,1.5,0.1,2.2,0.1c0.6,0.9,0.4,1.8,0.1,2.7c0.2,1.3,1.1,0.9,2,1c2.6,0.3,5.2,0.8,7.8,1.2
		c1.2,0,1.9,0.5,1.8,1.8c-0.6,4.1-3.6,5.6-6.9,5c-6.2-1.1-4.5,2.9-4.5,6c0.9,0.1,1.9,0,2.7,0.6c3.2,0.4,6.5,0.7,9.7,1.1
		c3,0.4,3,0.5,2.7,3.6c0,0.2,0.1,0.5,0.1,0.7c-0.6,2.8-2.4,3.6-5.2,3.5c-2.8-0.1-5.6,0.3-8.4,0.3
		C129.9,174.3,128.9,175.4,128.8,177.4z"/>
	<path class="st14" d="M265.8,137.7c4.8,9.1,4.8,19.4,6.9,29.2c1,1.2,0.9,2.6,1,4c0.1,2.6,0.2,5.1,0.3,7.7c0.3,6.8-0.4,13.5-1,20.2
		c-0.1,1,0,2.3-1.1,2.9c-1.6-4.1-2.1-7.8-0.3-12.4c1.3-3.3-0.1-7.8-0.3-11.7c-1.5,1.3-3.2,2.5-4.5,3.9c-3.1,3.4-5.2,1.6-7.6-0.9
		c-2.4-2.6-3.9-5.5-1.5-8.6c1.9-2.5,0.5-7.1,7.6-6.6c9.4,0.7,3.6-7.3,3.3-11.5C268.1,148.6,266.7,143.1,265.8,137.7z"/>
	<path class="st12" d="M271.8,201.7c0.5-6.9,1-13.7,1.5-20.6c0.1-0.9,0-1.7,0-2.6c1.2,0.1,1.2,1.1,1.4,1.9c0.5,1.4,1,1.3,1.9,0.2
		c0.9-1.3,1.8-3,3.7-2.3c1.9,0.7,1.3,2.6,1.4,4.1c0.1,0.9-0.2,1.9,0.4,2.7c0.5,0.8,1.3,1.8,2.1,1.6c0.9-0.2,0.1-1.3,0.2-2
		c0.2-1.3-0.1-2.8,1.7-3.2c0.1,0.3,0.2,0.6,0.3,0.9c0,7.4,0.2,14.7-2.1,21.9c-4.3,0.3-8.4,4.8-12.8,0.4
		C271.5,203.7,271.6,202.7,271.8,201.7z"/>
	<path class="st27" d="M286.1,181.5c-1.4,1.6-1.1,3.5-0.7,5.3c0.1,0.5,0,1-0.1,1.5c-0.5-0.2-1-0.3-1.4-0.6c-2.4-1.3-3.6-3.1-3-6.1
		c0.2-1-0.5-2.1-0.8-3.1c-1,0.7-2,1.4-2.8,2.2c-0.7,0.6-1.2,1.5-1.7,2.2c-0.5-1-1.1-2-1.6-3c-0.2-0.5-0.4-1-0.6-1.5
		c-0.2-3.9-0.4-7.8-0.7-11.6c1.2-3.4,2.9-4.7,6.7-2.9c1.9,0.8,1.4-2.4,2-3.7c0.5-1,0.4-2.2,0.5-3.3c0.8,1.3,1.6,2.6,2.4,3.9
		C285.3,167.7,286.8,174.5,286.1,181.5z"/>
	<path class="st22" d="M293.2,146c6,3.1,5.6,8.2,2.4,13.8c-0.2,0.4-2.3,0.2-2.9-0.3c-4.3-4.3-6.3-9.7-4.6-15.5
		C288.8,142.1,291.4,144,293.2,146z"/>
	<path class="st22" d="M310.9,158.6c1.4,2.6,1.9,4.8-2.2,5.1C309.4,162,310.1,160.3,310.9,158.6z"/>
	<path class="st8" d="M130.3,149.6c0-0.9-0.1-1.8-0.1-2.7c2.3-0.7,4.6-1.3,6.9-2c0.4,0.4,0.9,0.7,1.1,1.2c0.4,0.7,0.8,1.6,0.6,2.3
		c-0.1,0.4-1.2,0.8-1.9,0.8C134.8,149.4,132.6,149.5,130.3,149.6z"/>
	<path class="st26" d="M125.4,134.4c0.7,1.7,1.5,3.3,2.2,5c0.5,0.6,1,1.2,1.5,1.9c-1,1.2-2.2,3.5-2.8,3.3c-2-0.5,0.6-2.6-0.1-2.8
		c-3.3-1.3-1.9-5.1-3.9-7c-0.2-0.2-0.2-0.5-0.3-0.8C123.1,134.1,124.2,134.2,125.4,134.4z"/>
	<path class="st8" d="M133.2,165.1c-0.9-0.2-1.8-0.4-2.7-0.6c1.3-0.5,0.9-3.2,3.1-2.5C133.7,162.1,133.3,164.1,133.2,165.1z"/>
	<path class="st8" d="M142,153.5c-0.6-0.6-1.2-1.2-1.8-1.8c0-0.6,0.1-1.2,0.1-1.8c0.5,0.2,1.2,0.4,1.6,0.8c0.7,0.9,1.1,1.9,1.7,2.9
		C143,153.5,142.5,153.5,142,153.5z"/>
	<path class="st17" d="M64.3,157.2c-0.3,1.1-0.5,2.3-0.9,3.4c-0.2,0.7-0.8,1.2-1.2,1.8c-0.6-0.4-1.3-0.8-1.7-1.4
		c-1.2-2.2-0.5-5.2,1.4-6.8c0.7-0.6,1.2-0.7,1.6,0.3c0.2,0.5,0.5,1,0.8,1.4C64.9,156.3,65,156.7,64.3,157.2z"/>
	<path class="st15" d="M64.3,157.2c0-0.4,0-0.9,0-1.3c-0.3-2.9-0.6-5.8-1-8.7c2.1,2.2,2.8,7.9,1.3,11
		C64.5,157.8,64.4,157.5,64.3,157.2z"/>
	<path class="st15" d="M64.6,158.2c1.1,3.2,0.7,6.5-0.1,9.7C64.6,164.6,64.6,161.4,64.6,158.2z"/>
	<path class="st28" d="M86,200.9c2.7-1-0.8-5,2-5.2c3.5-0.3,6.7,1.2,7.6,5.2c-0.5,2.2-0.9,4.5-1.7,6.6c-1,2.8-2,5.6-3.4,8.2
		c-1.2,2.4-4.3,2.7-6.5,1c-3.2-2.5-3.4-3.8-1.5-8.9C83.6,205.5,84.9,203.3,86,200.9z"/>
	<path class="st27" d="M277.4,194.4c-1.3,0.3-2.7,0.7-2.7,0.6c-1.1-2.6,0.9-4.3,2.1-6.2c0.3-0.4,1-0.5,1.5-0.7
		C278,190.1,277.7,192.2,277.4,194.4z"/>
	<path class="st27" d="M285.1,191.5c-0.2,1.5-0.3,2.5-0.4,3.6c-0.6-0.1-1.5-0.2-1.6-0.4c-0.2-0.9-0.2-1.8,0-2.7
		C283.1,191.7,284.1,191.7,285.1,191.5z"/>
</g>
</svg>
