<?xml version="1.0" encoding="utf-8"?>
<!-- Generator: Adobe Illustrator 27.3.1, SVG Export Plug-In . SVG Version: 6.00 Build 0)  -->
<svg version="1.1" id="Layer_1" xmlns="http://www.w3.org/2000/svg" xmlns:xlink="http://www.w3.org/1999/xlink" x="0px" y="0px"
	 viewBox="0 0 360 360" style="enable-background:new 0 0 360 360;" xml:space="preserve">
<style type="text/css">
	.st0{fill:#4A6162;}
	.st1{fill:#76273C;}
	.st2{fill:#873F3E;}
	.st3{fill:#9D5A57;}
	.st4{fill:#B68582;}
	.st5{fill:#E3A59D;}
	.st6{fill:#E5A49D;}
	.st7{fill:#647378;}
	.st8{fill:#4A6263;}
	.st9{fill:#76283C;}
	.st10{fill:#657278;}
	.st11{fill:#883F3C;}
	.st12{fill:#752B3E;}
	.st13{fill:#E3A59C;}
	.st14{fill:#496263;}
	.st15{fill:#89413F;}
	.st16{fill:#627377;}
	.st17{fill:#E6A29D;}
	.st18{fill:#982D41;}
	.st19{fill:#EE9B9D;}
	.st20{fill:#4B6363;}
</style>
<g>
	<path class="st0" d="M120.1,209.9c-0.8-4-1.6-4.3-5.3-2.6c-1.2,0.5-2.4,1-3.7,0.8c-2.1-0.3-4.3-0.3-6.4-0.6c-2.8-0.3-5.3-1-5.5-4.5
		c-2.2,0-2.1,2.1-2.6,3.4c-1.5,3.5-1.6,3.6-5.3,3.3c-2.1-0.1-4.3,0.4-6.2-0.2c-3.1-0.9-8.8,0-8.1-4.8c2.4-17.8,1.9-35.3-2-52.9
		c-2.2-9.8-3-20-9.7-28.2c-3.7-0.9-7.4-1.1-10.9,0.4c-0.9,0.4-1.7,0.9-2.7,0.9c-4.8,3.2-7.1,8.3-9.3,13.3c-3.5,8-9.3,30.3-9.2,30.4
		c-0.5,2-0.9,4.1-1.4,6.1c1.8-0.4,1.7,0.7,1.7,1.9c0,3.2-0.1,6.4-0.1,9.6c0,1.4-0.1,2.9-0.1,4.3c1.2,1.4,1.3,3.2,1.4,4.9
		c0.4,4.8-0.2,9.8,2.9,14.2c3.9,5.5,7.3,11.3,10.6,17.1c1.7,0.7,3.5,1.3,5.2,2c2.6-0.3,5.2-0.5,7.6,0.6c4.8,0.1,9.6,0.2,14.4,0.3
		c4.7-0.4,9.5-1,14.2,0.1c2.6,0.3,5.2,0.6,7.8-0.1c4.6-0.3,9.3-0.5,13.9-0.8c1.6-1.6,2.2-3.8,3.5-5.5c1.3-1.5,2.2-3.2,2.6-5.1
		c0.6-2.5,2.1-4.8,2.5-7.4C120.2,210.6,120.2,210.3,120.1,209.9z"/>
	<path class="st1" d="M298.1,222.9c-0.8-0.7-1.7-0.8-2.7-0.7c-2.1,0.2-4.3,0.3-6.4,0.3c-3.8,0.1-7.6,0.2-11.4,0.7
		c-0.8,0.1-1.8,0-2.2,1c0,0-0.1,0-0.1-0.1c-1.8-0.9-3.6,0.1-5.4,0c-4.4-0.5-8.7,0.4-13.1,0.7c-0.6,0-1.1,0-1.6,0.3
		c-0.8,0.5-1.4,1.5-2.5,0.9c-1.7-0.9-3.6-0.7-5.3-1c-30.8,0-61.6,0.4-92.3,2c-3.6-0.4-7.2-0.2-10.8-0.3c-0.8-0.1-1.6-0.1-2.4,0
		c-8.6,0.9-17.1,1.3-25.8,1.4c-1.6-0.1-3.1,0.3-4.7,0.4c-4.6-0.1-9,0.9-13.6,0.8c-3.1,1.4-6.1,0.7-9.2,0.1c-1.2,0-2.4-0.2-3.6,0.1
		c-4.9,1.1-9.8,3.9-14.9,2.6c-4.2-1.1-8.5-1-12.7-1.7c-4-0.7-6.8,1.7-5.9,4.9c4,0.1,8,0.2,12,0.3c0.3,0.1,0.6,0.1,0.9,0.2
		c2.2,0,15.5-0.2,16.3-0.1c2.6,0,24.8-0.7,28.8-0.9c28.8-1,57.6-1.9,86.4-2.9c16.5-0.6,32.9-1.3,49.3-2c0.6-0.2,48-1.7,52.3-1.8
		c3.1,0.3,5.5-1.3,8-2.8c0.9-0.5,1.8-1.1,1.9-2.2C304.3,221.3,301.2,224.1,298.1,222.9z"/>
	<path class="st2" d="M140.6,121.4c10.7,0.2,21.4,0.4,32,0.7c0.8,1.4-0.1,2.2-1.2,2.8c-2.3,0.4-4.5,0-6.8,0.1
		c-3.8-0.2-7.6,0.5-11.4,0.3c-1.6-0.1-2.2,0.5-1.8,2.1c3.6,12.5,6.1,25.3,7,38.3c0.2,1.2-0.1,2.5,0,3.7c-0.2,2.3,0.6,4.5,0,6.8
		c-1,1.2-1.7,0.2-2.3-0.4c-3.6-3.4-7.6-4.4-12.1-1.9c-0.6,0.3-1.3,0.5-2,0c-0.7-0.9-0.9-1.9-0.9-3c-0.5-6.8-1.8-13.5-2.3-20.3
		c-0.5-7.4-2.3-14.4-4.6-21.3c-1.1-3.4-1.2-3.6-4.9-3.5c-5.2,0.2-10.3,0.4-15.5,0c-0.5,0-1.1,0-1.6,0c-0.8,0-1.6,0-2.4-0.5
		c-0.2-0.2-0.3-0.4-0.4-0.7c1.6-3.6,5-2.8,7.8-3c9.4-0.7,18.6,1.6,28,1.6c0.2,0,0.5-0.1,0.7,0c0-0.3,0.1,0.1-0.1-0.1
		c-0.1-0.1-0.3,0-0.5,0C143.7,122.8,141.5,123.8,140.6,121.4z"/>
	<path class="st3" d="M171.6,124.3c0.3-0.7,0.7-1.5,1-2.2c11,0,22,0.1,33,0.1c1-0.3,2-0.1,3-0.1c1.2,0,1.4,0.7,1,1.7
		c-1.5,1.2-3.3,1.1-5,1.1c-5.8,0.1-11.6,0.6-17.4,0.2c-0.6,0-1.3,0-1.9,0.2c-3.9,0.1-7.8-0.1-11.6-0.1
		C172.9,125.1,172.1,125,171.6,124.3z"/>
	<path class="st4" d="M209.4,123.7c-0.4-2.7-2.7-0.7-3.8-1.5c5.3-0.2,10.5-0.4,15.8-0.6c3.8-0.3,7.6,0.1,11.4,0.1
		c1.1,0,1.5,0.4,0.8,1.4c-6.8,2.9-14.1,0.7-21.1,1.6C211.4,124.7,210.3,124.7,209.4,123.7z"/>
	<g>
		<path class="st5" d="M230.2,121.8c0.5,0,1.2-0.2,1.8-0.2c-3.5,0-7.1-0.1-10.6-0.1C224.3,121.6,227.3,121.6,230.2,121.8z"/>
		<path class="st5" d="M232,121.6C232,121.6,232,121.6,232,121.6C232,121.6,232,121.6,232,121.6z"/>
		<path class="st5" d="M263.6,186c0.6-0.6,0.7-1.3,0.1-1.9c2-21.1-1.5-41.7-6.3-62.2c-1,0-19.2-0.3-25.4-0.4c0.6,0,1.1,0.2,1.4,1.2
			l0,0c-8,1.4-16,0.7-24,0.9c-8,0.3-16,0.6-24,0.9c-0.3,0.5-0.8,0.5-1.3,0.5c-3.7,0-7.5,0-11.2-0.1c-2.8-0.1-5.7,0.3-8.5-0.7
			c-4.3,0-8.6,0.1-12.9,0.1c-1.3,0-1.8,0.6-1.4,1.8c4.1,12.9,6.3,26.1,7.6,39.5c0,0,0,0,0,0c0,1.3,0,2.5,0,3.8
			c3-1.2,3.7-3.8,3.9-6.6c0-0.3,0.3-0.6,0.4-1c0.1,0.2,0.4,0.3,0.4,0.5c0.2,5.5,0.6,10.9,0.4,16.4c-0.1,6.1-4.4,12.9,3.6,17.4
			c0.2,0.1,0.1,0.8,0.1,1.2c0.1,1.5,1.4,2.7,2.3,2.7c5.5-0.2,4,4.5,5.2,7.2c0.4,1-0.5,1.8-1.7,2.2c-4.6,1.3-9.2,2.5-13.1,5.6
			c-2.4,1.9-1.4,3.1,0.4,4.3c0.4,0.3,1,0.4,1.2,0.7c2.1,4.4,6.4,4.5,10.3,5.4c2.8,0.7,3.1-3.4,5.7-3c9.2,1.4,18.5-2.9,27.9,1.3
			c4.4,2,9.8,0.1,14.4-1.6c5.9-2.2,11.8,1.7,17.9-0.6c3.6-1.4,8.3-0.1,12.5,0c-1.5,0.3-2.9,0.5-4.4,0.8c0.8,1.8,2.9,1.4,4.1,2.4
			c0.1,0.1,0.1,0.4,0.2,0.7c1.9,0.1,3.8,1.5,5.7,0.2c0.5,0,0.9-0.1,1.4-0.1c0.4-0.3,0.9-0.5,1-1c2.3-10.9,5.1-21.8,5.6-33
			C262.1,189.5,260,187.5,263.6,186z M156,139.8C156,139.8,155.9,139.8,156,139.8c-0.1,0-0.1-0.1-0.1-0.2c0.3-0.2,0.5-0.9,0.7-0.6
			C156.8,139.3,156.3,139.5,156,139.8z"/>
	</g>
	<path class="st6" d="M307.7,182.5c-2.1-0.2-4.2-0.9-6.4-0.4c-0.2,0.1-0.2,0.2-0.3,0.3c-1-0.6-2.7-0.6-2.6-2.2c0.1-2.7,2-5,4.2-5.6
		c6.2-1.8,7.7-5.9,6.7-11.6c-0.2-2.6-0.3-5.1-0.5-7.7c-0.4-4-0.6-8-1.2-12c-1.1-7.3-3-14.4-7.5-20.5c-0.5-0.6-0.7-1.4-1-2.1
		c-0.6-0.7-10.6,0.1-10.5,0.2c0,0-0.1-0.1-0.1-0.1c-2-0.1-19.1,0.4-20.4,0.5c3.3-0.3,5.5,0.1,5.7,4.5c0.4,5.6,1.8,11.1,2.8,16.7
		c-0.1,0.1-0.3,0.2-0.4,0.3c-0.5,1-0.5,2-0.3,3c0.3,2.9,0.6,5.9,0.8,8.8c0.3,4.3,1.1,8.5,1,12.8c-0.3,16.2-0.7,32.4-5,48.2
		c-0.8,3-3.3,5.5-2.5,8.9c1.7-0.1,3.4-0.2,5.1-0.4c7.6-0.5,15.3-1,22.9-1.5c1.2-3.6,2.4-7.2,3.6-10.8c1.1-3.1,1.1-3.1-2-3.9
		c-1.8-0.5-3.6-1.3-5.2-2.1c-0.5-0.2-1-1.2-0.9-1.7c0.2-0.5,1-0.9,1.7-1c1.9-0.2,3.8-0.4,5.7-0.4c3.3,0,3.2,0,4.5-3.1
		c0.2-0.6,0.6-1.1,0.9-1.6c-0.1-0.4-0.3-0.9-0.4-1.3c-0.4-0.6-0.8-0.3-1.2-0.1c-3.4,2.1-7.2,1.5-9.6-1.6c-1.6-1.9-1.1-3.2,1.4-3.6
		c2.7-0.3,5.2,0.1,7.7,1.2c0.9,0.4,1.7,1.3,2.8,0.4c0.2-0.6,0.4-1.2,0.6-1.8c1.3-2.2,1.8-4.7,1.7-7.2
		C309.3,183.5,308.7,182.6,307.7,182.5z"/>
	<path class="st7" d="M311,121c1.7,3.7,5.1,6,7.6,9c8.2,9.8,9.5,22,12.4,33.6c0.5,2.1,1,4.3,1.9,6.3c-0.2,6.1-1.1,12.2-1.6,18.3
		c-0.1,1.1-2.1,8.7-3,11.5c-0.1,0-0.3,0.1-0.4,0.1c-6.6,0.2-13.1,0-19.7-0.3c-0.6,0-1.2-0.3-1.8-0.6c-0.6-0.5-0.9-1.1-1-1.8
		c-0.3-1.4,0.5-2.5,0.9-3.7c0.2-0.7,0.5-1.4,1-2c0.3-0.4,1.1-0.4,1.1-0.8c0-1.8,0.8-2.8,2.6-3c0.8-0.1,0.7-0.7,0.5-1.3
		c-0.1-0.5-0.4-0.9-0.2-1.4c0.4-1.1,0.9-2.2,2.3-1.9c1.2,0.3,1.1,1.4,0.8,2.4c-0.8,2.3-0.3,4.2,1.2,6c0.9,1.1,1.8,1.8,3.2,0.7
		c0.7-0.6,1.6-0.7,2.5-0.3c1.9,0.9,2.8-0.2,3-1.8c1-7.8,2.7-15.6-0.4-23.3c-0.7-1.8-1.2-3.9-3.9-3.7c-1.2,0.1-1.3-0.7-0.9-1.6
		c0.3-0.9,1.1-2-0.3-2.4c-1.3-0.4-3.1-0.5-3.8,1c-0.7,1.5-1.9,2.3-3,3.3c-1.4,1.1-2.6,1.1-3.4-0.7c-0.4-2.3,0-4.7-0.5-7
		c-0.7-7.8-1.4-15.7-4-23.2c-1.1-3.1-2.7-5.9-4.5-8.7c-0.6-0.9-1.6-1.9-0.6-3.2C301.6,120.7,309.6,120.4,311,121z"/>
	<path class="st8" d="M306.4,198.4c0.7,0.2,1.4,0.5,2,0.5c5.3,0.1,10.6,0,15.8,0.1c1.3,0,2.5,0.6,3.8,0.9c-2.5,6.4-6.1,12-11,16.7
		c-0.3,0.2-0.6,0.5-0.9,0.7c-2.4,3-5.4,5.1-9.2,6.1c-1.4-0.5-2.8,0-4.2,0.1c-1.6,0.2-3.1,0.5-4.6-0.4c-0.8-3.8,1.7-6.8,2.6-10.1
		c0.9-3.3,1-3.3-2.2-4.3c-0.5-0.1-0.9-0.3-1.4-0.5c-1.7-0.8-4.2-1.2-4-3.5c0.2-2.6,2.9-2.3,4.6-2.1
		C301.7,202.9,304.3,201.3,306.4,198.4z"/>
	<path class="st9" d="M267.5,229.1c-1.1,0-2.2-0.1-3.3-0.1c2-2.7,4.1,0.6,6.2-0.1C269.4,229,268.5,229.1,267.5,229.1z"/>
	<path class="st1" d="M84.7,230.1c-2.1,2.1-14.2,4.1-16.8,2.5c-3.7-2.3-7.9-0.2-11.8-1.5c-1.1-0.4-4.9,0.8-4.5,4.3
		c-2.6-1-4.5-2.9-6.4-4.8c-6-6.3-10.3-13.6-13.7-21.6c-1.7-4-3.2-7.9-4-12.1c-0.4-0.3-0.5-0.7-0.6-1.1c-0.8-7.6,1.3-14.5,4.9-21.1
		c2-0.2,2.6,0.2,2.7,2.4c0.1,3.1,0.1,6.1-0.2,9.2c0,1.4,0.1,2.7-0.1,4.1c-1.3,14.5,6.7,25.3,14.6,36.1c1.7,1.1,3.6,1.5,5.5,1.9
		c2.4,0.7,4.9,0.6,7.4,0.5c4.7,0.1,9.3,0.1,14,0.3c2.1,0.3,4.3,0.2,6.4,0.2C83,229.3,84,229.1,84.7,230.1z"/>
	<path class="st10" d="M276.5,142.8c0.6,8.3,1.2,16.6,1.8,24.9c-1.6-2-2.1-0.6-2.5,0.8c-1.6,5.5-3.5,11-8.7,14.3
		c-1.1,0.7-2.3,2.6-3.9,0.6c-0.6-7.3,0.1-14.6,0.1-21.9c-0.1-12.6-4.4-24.5-6-36.9c-0.1-0.9-0.4-1.7-0.1-2.6
		c1.6-1,13.6-0.4,14.9-0.6c0.8-0.2,1.4,0.3,1.6,1.1c1.6,6.5,2.7,13.1,3.1,19.7C276.8,142.4,276.6,142.6,276.5,142.8z"/>
	<path class="st11" d="M140.6,121.4c2.2,1.4,4.7,1.3,7.1,1.5c0.5,0,1.5-0.5,1.4,0.5c-0.1,0.8-1,0.5-1.7,0.6
		c-11.2,0.2-22.2-3-33.5-1.3c-1.5,0.2-3.5-0.1-4,2.2c-0.6,0.8-1.5,0.9-2.4,0.8c-13.1-0.3-26.3-0.3-39.4-0.9c-1,0-1.9,0-2.7-0.7
		c-2.3-0.1-4.6-0.3-6.9-0.2c-1.1,0-2.3,0.5-3.4,0.8c-1.2,0.3-2.4,0.6-3.6,0.9c0.5-2.5,4.1-4.9,6.8-4.6c1.3-0.3,2.6-0.6,3.8-1
		c1.3-1.2,2.9-1.6,4.5-1.7c3.8-0.4,7.5-0.3,11.3,0.6c3.9,0.1,7.8,0.2,11.8,0.4c2.2,0.4,4.4,0.5,6.6,0c1.4-0.3,2.8-0.3,4.1,0.5
		c2.1,0.2,4.1,0.4,6.2,0.6c5.8-0.1,11.5,0,17.3,0.4C129.4,121,135,121.2,140.6,121.4z"/>
	<path class="st12" d="M332.4,169.3c-2.8-4.7-3.1-10.2-4.2-15.4c-2.5-12-7.6-22.3-16.6-30.5c-0.5-0.4-1.6-0.9-0.5-1.9
		c3.3,0.9,4.7,3.6,6.4,6.1c1.1,1.3,2.2,2.5,3.3,3.8c1.4,0.4,2,1.8,2.7,2.8c3.6,5.2,7.5,10.2,8.8,16.6c0.6,2.9,0.5,5.8,0.3,8.7
		c0,1.4,0,2.8,0,4.1C333.7,165.5,333.4,167.4,332.4,169.3z"/>
	<path class="st7" d="M307.7,191.7c0-0.2,0-0.3,0-0.5c1.9-7.9,1.5-8.4-6.6-8.7c-2.9,0-4.1-1.7-2.9-4.2c1.6-3.1,4.3-5.1,7.5-6.2
		c2.2-0.8,3.2-1.9,2.8-4.3c-0.2-1.5-0.6-3.3,0.8-4.7c2.8,1.2,3.5-1.4,4.7-2.8c0.4-0.5,0.2-1.9,1.3-1.8c1.6,0.1,3.4-1.5,4.9,0.3
		c1,1.1,0.2,2-0.6,2.9c-0.2,0.2-0.1,0.5-0.1,0.8c6.7-0.3,5.3,5.7,6.3,9.1c2,6.4-0.2,13-1,19.5c-0.2,1.4-1.5,3.5-3.8,1.4
		c-0.3-0.3-1.1-0.5-1.2-0.3c-1.2,1.3-2.3,2.6-4.1,0.6c-1.9-2.1-3.2-4.3-2.1-7.3c0.2-0.6,1-1.3,0.1-1.9c-0.2-0.2-1,0-1.1,0.3
		c-0.4,0.6-1.4,1.1-0.5,2.2c1.3,1.7,1,2.7-1.4,2.4c-1.1-0.1-2.2,0.4-1.5,1.6C310.6,192.7,308.4,191.4,307.7,191.7z"/>
	<path class="st7" d="M306,197.1c-4.5,3.1-9.4,2.2-12.1-2.2c-1.3-2.1-0.6-3,1.5-3.6c4.2-1,7.9,0.6,11.6,2.2
		C306.7,194.7,306.3,195.9,306,197.1z"/>
	<path class="st13" d="M157.9,176.6c0-2.4-0.1-4.8-0.1-7.1c1.7-2,3.1-4.2,3.3-6.9c0-0.5,0.3-1.2,1-1.1c0.7,0.1,1,0.8,0.9,1.5
		c-0.2,3.1,0.4,6.2,0.6,9.2c0.3,4.1,0.4,8.1-1.2,11.9c-0.3,0.8,0,1.6,0.2,2.3c0.3,1.4,0.7,2.8,0.6,4.2c-0.2,2.1,0.7,3.2,2.5,4.5
		c2.1,1.6,3.9,3.5,6.3,4.9c1.7,1,2.8,4.1,2.8,6.8c0,1.3-0.5,2.7-1.7,2.8c-2.5,0.4-4.4,2.3-6.9,2.5c-2.6,0.3-4.5,2-6.4,3.5
		c-1,0.8-1.2,1.7,0,2.5c0.1,0.1,0.2,0.2,0.4,0.3c1.9,0.6,0.8,3.6,3.2,3.7c1.8,0.1,3.3,0.6,4.6,2c1.1,1.1,4.2,0.6,5.5-0.7
		c1.4-1.5,3-1.8,5-1.8c6.8,0.2,13.5-0.6,20.2-0.8c1.5,0,2.8,0.4,4,1.2c2,1.4,4.2,1.6,6.6,1.2c4.6-0.7,9.2-1.7,13.8-2.5
		c2.5-0.4,4.9,0,7.3,0.8c1,0.3,1.7,0.4,2.7-0.1c2.4-1.1,5-1.5,7.7-1c2.7,0.4,5.6-0.2,8.3,0.6c0.8,1.6-0.7,1.2-1.4,1.4
		c-0.3,0.1-0.8-0.1-0.8,0.2c-0.1,0.3,0.5,0.3,0.7,0.5c0.8,0.5,2.3,0.5,1.9,2.1c-0.5,0.3-1.2,0-1.7,0.4c-13.7,0.1-27.5,0.2-41.2,0.5
		c-17.1,0.4-34.3,0.9-51.4,1.4c-8.4-14,1.2-18.8,8.8-20.4c1.5-0.3,4-0.4,4-1.9c0-1.6-1.7-0.1-2.6,0.1c-0.5,0.1-1,0.6-1.4,0.8
		c-2.7,1.5-5.6,2.7-8.5,3c-6.2,0.5-8.2,4.3-10.7,9.3c-1,2-1.4,3.7-0.3,5.4c0.8,1.2,2.1,2.7-0.5,3.5c-6.4,0.4-12.8,0.9-19.2,1.2
		c-3,0.2-6,0.1-9,0.1c-0.5-1.8-0.9-3.5-1.3-5.3c0.9-1.7,1.7-3.4,2.6-5.2c1.3-1.3,3.3-1.9,3.5-4.3c0.1-1.2,0-2.1-0.9-2.8
		c0-0.3,0.4-4.6,1.5-6.2c3-1.9,3-2,1.2-5c1.1-3.9,0.4-8.1,2.4-11.8c0.6-0.4,1.2-0.4,1.9-0.3c4.8,1,9.7,2,14.2,4.2
		c2.5,1.2,4.2,3.1,4.8,5.9c-0.1,0.5-0.3,1.1-0.8,1.1c-6.5-0.1-10.8,5.5-17.2,6.4c-4.7,0.6-0.6,6.3-3.3,9c-0.9,0.9-1.3,2.7-1.7,4.1
		c-0.5,1.9-2.6,3.5,2,5.6c5.3,2.4,8.9-1.1,13.2-0.4c0.2,0,0.4-0.1,0.4-0.1c-2.4-3.7,2-5.9,2.1-9.1c0-0.9-0.1-2,0.6-2.4
		c3.5-2.2,6-6.4,11-5.8c0.4,0.1,1.2,0.1,1.2-0.5c0-0.5-0.7-0.5-1.2-0.6c-1.1-0.3-2.2-0.1-3.3-0.3c-0.7-0.1-1.2-0.4-1.4-1.2
		c-0.1-0.6,0.1-1.4,0.6-1.4c2.2,0.1,2.9-1.1,3.3-2.9c1.6-0.4,3.2-0.2,4.7-0.1c1.6,0.1,2.1,0.3,0.9-0.1c-0.6-0.2-1.4-0.6-1.2-1.3
		C157.4,190.9,156.3,183.6,157.9,176.6z"/>
	<path class="st14" d="M256.5,225.4c2.4-11.5,5.1-22.9,6.1-34.7c-0.4-1.6-0.7-3.2,0.6-4.7c0.2-0.7,0.3-1.3,0.5-2
		c5.1-2.8,9-6.6,10.3-12.6c0.5-2.1,1.5-4,2.4-5.9c0.2-0.4,0.7-0.7,1.1-1c0.1,0.4,0.3,0.8,0.4,1.3c0.1,0.6,0.3,1.2,0.4,1.8
		c-0.2,19.4-0.4,38.8-8.2,57.1C265.6,225,261.1,225.2,256.5,225.4z"/>
	<path class="st15" d="M144,227.4c1.4-0.6,1.1-1.4,0.4-2.4c-3.4-5.8,1.4-15.2,8.2-16c4.7-0.5,8.9-2.1,12.9-4.5
		c1-0.6,2.4-0.6,3.6-0.8c0.1,0,0.5,0.8,0.5,1.1c-0.3,1.5-1.4,2.2-2.9,2.5c-12.8,2.6-9.8,2.2-11.6,15c-0.2,1.7,0,3.5,0,5.2
		C151.5,227.5,147.8,227.5,144,227.4z"/>
	<path class="st5" d="M114.5,223.4c1.7,1.5,1.9,3.3,1.3,5.3c-1.4,0.1-2.9,0.2-4.3,0.3C112.5,227.2,113.5,225.3,114.5,223.4z"/>
	<path class="st0" d="M75.6,229.8c4.6-1,9.2-2.3,13.9-0.1c-0.3,0.3-0.7,0.1-1,0.4c-1.3,0-2.5,0-3.8,0
		C81.7,230,78.6,229.9,75.6,229.8z"/>
	<path class="st1" d="M88.5,230.1c0.3-0.1,0.7-0.3,1-0.4c2.7,0.1,5.4,0.1,8.1,0.2C94.6,231.6,91.5,230.5,88.5,230.1z"/>
	<path class="st9" d="M249.4,225.4c1.9,0.1,3.8,0.1,5.7,0.2c-2.3,3.3-4.9-1-7.3,0.2C248.4,225.7,248.9,225.5,249.4,225.4z"/>
	<path class="st9" d="M263.4,229.1c-1.6,0.1-3.3,0.2-4.9,0.3C259.7,224.7,261.8,229.8,263.4,229.1z"/>
	<path class="st0" d="M33.4,190.7c1.3,0.3,1.8,1.1,1.8,2.4c0.1,3.1,0.2,6.3,0.5,9.4c0.2,2.4,1,4.6,2.3,6.7c2.7,4.3,5.4,8.7,8.1,13
		c1,1.5,2.6,2.7,2.2,4.8C40.3,216.1,32.3,205.3,33.4,190.7z"/>
	<path class="st0" d="M53.6,228.9c2.4-1.5,5.7-1.2,7.6,0.6C58.7,229.3,56.1,229.1,53.6,228.9z"/>
	<path class="st0" d="M64.6,147.9c1.7,0.2,4.1,0.4,6.5,0.7c1,0.1,0.9,0.9,0.6,1.7c-1.1,2.3-0.6,4.3,1.1,6.1c0.3,0.3,0.3,0.8,0.5,1.2
		c-0.4-0.1-0.8-0.2-1.1-0.4c-0.6-0.6-1.5-0.8-1.8,0c-0.3,1.1-0.4,2.4-0.1,3.4c0.3,0.7,1.2,0.3,1.7-0.4c0.2-0.2,0.4-0.4,0.7-0.5
		c0,0.3,0.1,0.6,0.1,0.9c0,0.7-0.2,1.6,0.2,2.1c2.6,4.5,1.7,9.2,1.4,14c-0.4,6.3-0.6,12.5-0.9,18.8c0,0.9-0.5,2.1,0.9,2.7
		c0.9,0.4,0.1,0.9-0.2,1.3c-2,2.7-2.1,5.8-1.4,8.8c0.6,2.4,2.5,4,5.2,3.1c1.1-0.4,1.4,0,1.9,0.6c2.9,3.6,6.9,3,10.8,2.8
		c0.5,0,1-0.9,1.5-1.3c0.6-0.5,1.2-0.9,1.9-1.2c0.3-0.1,0.7,0.1,1.1,0.1c-0.3,0.3-0.5,0.7-0.8,1c-0.4,0.5-2,0.3-1.3,1.4
		c0.6,0.9,2.3,1.2,2.9,0.1c0.8-1.6,3.4-2.1,3-4.5c-0.2-1,0.8-1,1.5-1c3.9,0.2,7.8,0.6,11.7,0.6c1.7,0,2,0.6,1.5,2.1
		c-1,3.5-2.2,7-4.9,9.6c-1,1-2.5,1.9-3.8,2c-3,0.2-6.1,0.7-9.2,0.2c-1.9-0.3-3.8-0.3-5.5-1.6c-0.8-0.6-1.3-0.8-0.4-1.7
		c1.1-1,0.5-1.8-0.5-2.2c-1.3-0.6-2.6-2.1-4.3-0.4c-0.2,0.3-1.1-0.2-1.7-0.2c-0.7,0-1.5-0.1-2,0.2c-0.4,0.3-0.5,1-0.8,1.6
		c0.5,0.1,1,0.3,1.4,0.3c0.5,0,1.2,0,1.6-0.2c0.8-0.4,1-0.4,1.3,0.6c0.1,0.5,0.8,0.8,1.3,1.1c0.4,0.2,0.9,0.3,1.3,0.4
		c-0.5,0.3-0.9,0.6-1.4,0.8c-1.7,0.6-2.9-0.5-4.2-1.2c-2-1-3.4-0.8-3.9,1.6c-0.2,1.1-0.7,1.5-1.8,1.5c-0.9,0-1.8,0.1-2.6-0.2
		c-5-1.7-10-1.1-15.1-0.7c-3.9,0.3-7.3-0.6-9.7-3.9c-1.5-2.1-2.6-4.5-3.9-6.8c-1.5-2.6-2.9-5.2-4.3-7.9c-0.5-0.9-1-1.8-1.1-2.8
		c-0.5-4.1-0.8-8.2-1.1-12.2c-0.3-3.4-0.5-6.7,0.1-10.2c0.2-1.4-0.9-3.1-1.5-4.6c-0.5-1.4-1.5-2.7-0.5-4.2c0.2-0.3,0.5-0.6,0.7-0.9
		c0.2,0.3,0.5,0.6,0.6,0.9c0.2,0.7,0.2,1.6,1.2,1.4c0.9-0.2,1.3-1.1,1.2-2.1c-0.1-0.7-0.3-1.4-0.4-2.1c-0.6-3.1,0.3-6.1,0.7-9.1
		c0.2-1,0.8-2.2,2.1-1.2c1.3,1,2.8,1,4.3,1c2.2,0,4.3,0.1,6.5,0.1c4.5,0,6-2.1,4.5-6.4c-0.9-2.7,0.7-5,3.5-4.9
		C62.4,147.8,63.1,147.9,64.6,147.9z"/>
	<path class="st14" d="M124.8,188.3c-0.3,2.1-1.1,4.2-0.8,6.2c0.3,2.2-1.5,3.7-1.2,5.7c0.6,1.8,0,3.3-1.1,4.8
		c-0.7,1.8-1.3,3.6-2,5.3c-0.5-3.6-1.7-3.3-5.1-2.2c-5,1.8-10.5,0.8-15.4-1.6c-1.5-0.7,0.3-2.3-0.1-3.5c-0.3-4.6,1.7-8.7,3.7-12.6
		c0.8-1.5,2.5,0.1,3.7,0.9c2.2,1.4,4.8,3.8,6.8,0.9c2.2-3.1-0.3-5.4-3-7.1c-1.3-0.8-2.8-1.3-3.7-2.6c-1.2-1.7-1.4-3.4-0.1-5.1
		c1.2-1.6,2.6-0.5,3.8,0.1c1.6,0.8,3.3,1.2,5,1.4c4.2,0.2,6.9-4,5.2-7.9c-0.5-1.2-1.2-2.3-2.3-3c-2-1.4-3.2-3.2-4.3-5.3
		c-0.8-1.5-0.9-2.7-0.5-4.3c1-4.3,2.8-8.3,3.6-12.6c0.3-1.5,1.3-2.4,3-1.5c0.6,0.5,1,1.1,1.3,1.8c0.2,0.8,0.6,1.6,1,2.4
		c0.6,1.3,0.4,2.4-0.6,3.5c-1.6,1.8-1.8,3-0.3,4.8c1.4,1.8,1.8,3.8,2.3,5.8c0.8,3.1,1,6.4,2.4,9.3c0.2,1.6,0,3.1,0.1,4.7
		c0.1,1,0,2.1-0.2,3.1c-0.2,0.8-0.8,1.3-1.4,1.8c-1.7,1.5-1.8,2.6-0.6,4.6C124.4,186.9,125.1,187.4,124.8,188.3z"/>
	<path class="st10" d="M65.4,124.1c0.8,0,1.6,0,2.4,0c4.8,7.4,6.7,15.7,8.1,24.3c0.6,3.7,1.4,7.3,2,11c1.7,10.2,2.7,20.5,2.1,30.9
		c-0.3,4-1,7.9-1.4,11.8c-0.4,3.5,0,4.3,3.3,5.5c1.4,0.5,2.8,0.8,4.2,0.5c2.1-0.5,4.2-0.9,6.4-0.5c1.1,0.2,1.9-0.4,2.2-1.4
		c0.8-2.1,1.6-4.1,1.8-6.4c0.3-2.8-1.2-5.2-2.4-7.3c-2-3.4-1.7-6.7-1.5-10.1c0.1-1.8-0.1-3-1.6-4.1c-3.3-2.5-2.5-5.5-0.8-8.4
		c0.4-0.7,1.1-1.2,1.7-1.6c1.2-0.8,1.5-2,1.3-3.3c-0.3-1.4-0.4-2.8-0.2-4.3c0.3-1.8,1.1-2.9,3.1-1.9c1.2,0.6,1.8,0.3,2.2-0.8
		c0.1-0.3,0.3-0.6,0.6-0.7c3.4-0.6,6.9-2.1,9.5,1.6c0.4,0.6,0.9,1.1,1.5,1.4c0.7,2.4,0.6,4.7-1.2,6.7c-0.6,0.6-1.2,1.2-1.6,2
		c-0.7,0.9-1.7,1.1-2.7,1.4c-1.3,0.4-1.9,1.1-1.5,2.5c0.2,0.8,0.2,1.8,0.5,2.6c1.8,3.6,1.2,6.9-0.8,10.1c-1.8,2.9-0.8,6.2-1.7,9.3
		c-1.4,4.7-3,9.3-5,13.8c-0.9,2-2.6,1.7-4.2,2.1c-4.1-0.1-8.2-0.2-12.2-1.5c-6-1.9-3.1-6.2-2.7-9.3c1.9-15.5,1-30.8-2.1-46
		C72.7,143.5,71.3,133.1,65.4,124.1z"/>
	<path class="st16" d="M91.8,210.6c4-0.7,4.7-4.2,5.8-7.1c1.7-4.8,3.4-9.7,3.4-15c0-2,1.1-4.1,2.2-5.9c1.1-1.8,0.9-3.3,0.3-5.1
		c-0.7-1.9-1.2-3.9-1.6-5.9c-0.2-1.2,0.7-1.6,1.7-1.9c1.2-0.4,2.3-0.9,3.5-1.3c4.9-4.9,3.5-12.1,6.4-17.8c1.7-3.2,2.4-6.8,2.2-10.6
		c-0.1-1.6,0.7-2.8,2.6-2.6c0.4,0.4,0.5,0.9,0.4,1.5c-1.1,1.6-0.7,3.5-1.1,5.3c-1.1,5.3-3.1,10.3-4.6,15.5c-0.8,3-0.8,3.4,1.6,5.3
		c1.1,0.8,2.1,1.8,3,2.7c2,1.9,3.1,4.2,3,7c-0.1,3-1.8,4.7-5.1,4.9c-1.7-0.4-3.4-0.8-5.1-1.1c-1.2-0.2-2.4-2.8-3.6-0.2
		c-1,2.2-0.3,4,1.8,5.2c2.5,1.3,5.2,2.3,6.1,5.3c0.5,1.8,0.6,3.8-1.3,4.9c-2.7,1.7-5.2,0.2-7.1-1.6c-2.5-2.4-3.5-1.9-4.3,1.3
		c-0.8,3.3-1.9,6.5-2.9,9.7c-0.7,1.5-1.5,2.9-2.1,4.4C96.1,210.1,94.5,211.1,91.8,210.6z"/>
	<path class="st5" d="M119.7,211.2c1.7-0.2,2.7,0.3,1.7,2.2c-0.1,0.3-0.3,0.6-0.3,0.9c0.1,2.8-1.7,3.6-4,4
		C117.9,215.9,118.8,213.5,119.7,211.2z"/>
	<path class="st10" d="M110.1,160.3c-1.3,0.6-2.2,0.7-2.3-1.3c-0.1-1.9-2.4-2.3-3.1-1.8c-1.8,1.1-5.3-2.2-5.8,2.1
		c-0.1,0.5-0.4,1.2-0.8,1.3c-0.3,0.1-0.9-0.4-1.3-0.7c-0.7-0.4-1.5-0.8-2.2-1.1c-0.3,0.8-0.8,1.6-0.7,2.3c0.5,3.8,0.5,7-3.3,9.8
		c-1.5,1.1-2.6,5,1.4,6.9c3.3,1.6,1.2,5.2,1.1,7.7c-0.1,4.2,2.3,7.3,3.7,10.8c1.6,3.9-0.4,7.4-1.7,11c-0.8,2.3-2.8,1-4.3,0.9
		c-3.2-0.1-6.3,1.5-9.8,0.1c-3.3-1.3-3.7-3.2-3.3-6.2c1.1-8.1,2.1-16.1,1.5-24.3c-0.8-12.6-3.3-24.9-5.7-37.2
		c-1-4.9-2.5-9.5-5.1-13.7c-0.5-0.7-0.4-1.8-0.6-2.7c14,0.3,28.1,0.5,42.1,0.8c0,0,0,0.1,0,0.1c0.2,0.2-0.1-0.1,0.2,0.2
		c0.7,0.6,1,1.6,1.9,2c0.2-0.7-0.4-1.5,0.3-2.2c0.5,0,1,0,1.5,0c1.8,2.8,3.4,5.7,3.1,9.2c-1.2,0.1-1.6,0.6-1.4,1.9
		c0.8,4.8,0.5,9.5-1.7,14.1c-1.1,2.3-1.5,5-2.3,7.5C111.2,158.6,111.5,160,110.1,160.3z"/>
	<path class="st17" d="M116.8,134.2c-1-3-2.1-6.1-3.1-9.1c5.5,0,11,0.1,16.5-0.2c2.8-0.1,3.9,0.7,4.9,3.4
		c4.8,13.8,5.4,28.3,6.8,42.7c-1.2,0.2-1.9-0.7-2.1-1.6c-1.1-4.7-4.5-5.4-8.4-4.6c-4.1,0.8-3.7,4.6-4.5,7.6
		c-0.4,1.5,0.7,3.4-1.2,4.5c0-1.7,0-3.5-0.1-5.2c-0.9-3.6-1.2-7.3-2.1-10.9c-0.5-1.9,0.9-2.6,2.5-3.1c2.1-0.7,4.7-1.1,4.7-3.9
		c0-2.6-2.4-3.5-4.4-4.5c-1.8-0.9-4.1-1-5.4-2.8c-0.3-0.5-0.6-1.1-1-1.6c-1.7-1.6-2.2-3.6-1.6-5.9c-0.1-0.4-0.1-0.9-0.2-1.3
		C116.9,136.7,116.4,135.6,116.8,134.2z"/>
	<path class="st18" d="M124.8,188.3c-2.9-3-3.8-5.8,0.7-8.1c1.6-1.1,3.1-0.4,4.5,0.3c3.5,1.6,7,3,10.4,4.7c1.8,0.9,1.9,0.8,2-1.2
		c0.1-2.6-0.4-5.2-0.4-7.8c0-0.8-0.3-1.6,0.4-2.2c6-3.7,11.1-2.4,15.5,2.7c0,7,0,14-1.8,20.9c-0.6,2.2,1.6,0.8,2.5,1.1
		c1.5,0.6,1.8,1.4,0.4,1.4c-2.9,0-5.7,0-8.6,0c-2.6,1.1-4,0.6-5.2-1.7c-2.6-6.7-9.1-7-14.7-8.7C128.7,188.9,126.7,188.7,124.8,188.3
		z"/>
	<path class="st19" d="M142.4,173.9c0.3,4,0.7,8,1,12.1c0.2,1.9-0.8,1.1-1.7,0.8c-5.3-2.3-10.3-5.8-16.2-6.5c0-1.1,0.1-2.2,0.1-3.3
		c0.1-0.8,0.4-1.7,0.4-2.5c-0.1-2.3,0.4-4.4,1.2-6.5c1.2-3.3,3.2-4.5,6.7-4.1c1.1,0.1,2.2,0.3,3.3,0.6c1.4,0.3,2.1,1.3,2.4,2.6
		c0.4,1.5,0.7,3.2,2.2,4.1C142,172,142.2,172.9,142.4,173.9z"/>
	<path class="st5" d="M185.4,124.6c0.1,0,0.2,0,0.2,0.1c0.1,0,0.2,0.1,0.2,0.1c0,0.1,0,0.3-0.1,0.3c-7.1,0.4-14.3,1.2-21.3-0.8
		c2.4,0,4.8,0,7.1,0C176.2,124.4,180.8,124.5,185.4,124.6z"/>
	<path class="st10" d="M112.3,125.1c-0.6,1.4,1.8,2.3,0.6,3.6c-0.4,0.5-2.8-2.3-3-3.7C110.7,125,111.5,125,112.3,125.1z"/>
	<path class="st7" d="M316,167.7c-1.4,0-1.2-0.9-1.4-1.5c-0.2-0.5-0.1-1,0.6-0.8c0.7,0.2,1.4,0.7,2.1,1
		C316.8,166.9,316.4,167.3,316,167.7z"/>
	<path class="st5" d="M145.2,198.2c1.4,1.6,6.2,1.6,8.1,1.7c0.3,1.1-0.5,1-1.2,2.3c-0.3,0.5-2,0.3-3.1,0.2c-0.7-0.1-1.3-0.1-1.5,0.7
		c-0.2,1,0.6,1.2,1.4,1.1c0.7,0,1.5-0.3,2.1-0.1c1.2,0.4,3.4-0.2,3.3,1.4c-0.1,2-2,1.4-3.4,1c-0.7,2.5-6.3-1.6-5,3.7
		c0.2,0.8-0.8,0.3-1.2,0.2c-1.9-0.2-4.1,1.1-3.8,2.3c1.1,4.1-5.8,7-1.5,11.4c0,0-0.4,0.5-0.6,0.7c-3.7-3.1-6.4,1.4-9.8,1.4
		c-1.1,0-2.5,1.9-3,0.5c-0.3-0.6-2.9-0.9-3.5-1c-4.7-0.8-2.4-4.5-0.1-9.2c1.3-2.6,3.9-5.6,1.8-9.2c-0.6-1.1-0.2-1.6,1-2.2
		c3-1.4,0.6-5.2,4.2-5.1c1.6,0.1,5.6,0.7,6.1-1.8c0.5-2.7,5.8-1,7.7-0.5C143.9,198.3,144.5,199.2,145.2,198.2z"/>
	<path class="st5" d="M121.6,205c0.4-1.6,0.8-3.2,1.1-4.8c1.4,0.4,1.9,1.5,1.6,2.7C124.1,204.2,123.1,205,121.6,205z"/>
	<path class="st13" d="M249.5,221.6c0.3-0.1,0.6-0.4,0.8-0.4c1.7,0.2,2.4-0.3,2.2-2.2c-0.2-1.6,0.1-1.8,1.8-2.5
		c0.2-0.1,0.3-0.5,0.2-0.8c-0.1-2.3-0.4-4.6-0.3-6.9c0.1-1.3,0.9-2.5,1.4-3.7c0.3-0.9,0.9-1.8,1-2.8c0.3-3.4,0.4-6.8,0.8-10.2
		c0.2-1.9,1-3.8,1.5-5.7c1.2,5,2.3,10-1.1,14.8c-0.6,0.9-0.2,2.6-0.1,3.9c0.8,6-3.5,11.2-2.5,17.2c0.1,0.4-0.4,0.9-0.6,1.4
		c-0.1-0.4-0.2-0.8-0.4-1.1C253,220.6,251,222,249.5,221.6z"/>
	<path class="st13" d="M258.9,186.4c0.1-6.1,0.3-12.3,0.4-18.4c0-1.7,0.1-3.3,0.1-5c2.5,4.3,3.1,8.9,2.6,13.7
		C261.6,180.1,257.4,182.4,258.9,186.4z"/>
	<path class="st13" d="M263.2,186.1c-0.2,1.6-0.4,3.1-0.6,4.7c-1-0.1-2.1-0.2-1.8-1.5c0.4-1.6,0.9-3.4,1.8-4.7
		C262.9,184.1,263,185.6,263.2,186.1z"/>
	<path class="st5" d="M155,139.8c1.2-0.3,0.2-2.5,1.8-2.3c0.3,0,0.7,1.1,0.7,1.6c0,1.4-1.1,1.2-2.1,1.2
		C155.3,140.1,155.2,139.9,155,139.8z"/>
	<path class="st20" d="M120.9,146.4c2.3,0.9,4.6,1.8,6.8,2.8c2,0.9,4.1,2,3.9,4.7c-0.2,2.9-2.5,3.9-4.8,4.2
		c-2.9,0.5-3.1,1.8-2.4,4.2c0.9,3,1.5,6.1,1.2,9.3c-2.2-1.7-1.2-4.4-2-6.6c-1.1-3-1.3-6.3-3.5-9c-0.9-1.1-0.9-3.1,1.1-4.4
		C123.8,150,120.5,148.2,120.9,146.4z"/>
	<path class="st20" d="M118.3,138.9c0.5,2,1.1,3.9,1.6,5.9c-1.2-0.4-2-0.2-2.3,1.2c-1.2,4.5-2.4,9-3.7,13.5c-0.3,1.1,0.3,2,0.6,2.9
		c0.9,3.9,5.1,5,6.7,8.2c1.8,3.8-1,9.2-5.2,9.4c-0.2,0-0.4-0.2-0.6-0.4c5.1-1.6,6.7-7.4,2-10.7c-6.7-4.6-5.9-9.4-3.3-15.4
		c1.8-4.2,3-8.5,3.2-13.1C117.3,139.8,118,139.4,118.3,138.9z"/>
	<path class="st10" d="M116.8,134.2c0.4,1.1,0.9,2.3,1.3,3.4c-1.1,0.5-1.9,1-1.9,2.4c0.4,7.3-3.5,13.5-5.2,20.3
		c-0.8,2.9,0.2,6.8-4,8.1c2-2.3,2.9-5,3-8.1c2-8.1,7.4-15.6,4.4-24.6c-0.2-0.7,0.2-1.7,0.4-2.5C115.5,133.5,116.2,133.8,116.8,134.2
		z"/>
	<path class="st10" d="M114,145.1c-0.5,0.6-1,1.5-1.3,1.4c-1.6-0.4-0.7-1.8-0.7-2.7c0-0.7-0.5-1.8,0.6-2.2
		C113,142.7,113.4,143.8,114,145.1z"/>
</g>
</svg>
