<?xml version="1.0" encoding="utf-8"?>
<!-- Generator: Adobe Illustrator 27.3.1, SVG Export Plug-In . SVG Version: 6.00 Build 0)  -->
<svg version="1.1" id="Layer_1" xmlns="http://www.w3.org/2000/svg" xmlns:xlink="http://www.w3.org/1999/xlink" x="0px" y="0px"
	 viewBox="0 0 281 186" style="enable-background:new 0 0 281 186;" xml:space="preserve">
<style type="text/css">
	.st0{fill:#F16B97;}
	.st1{display:none;}
	.st2{display:inline;}
	.st3{fill:#F27891;}
	.st4{fill:#F27891;stroke:#F27891;stroke-width:3.6638;stroke-miterlimit:10;}
</style>
<g id="Layer_1_00000121260294514996568430000005134288822168688536_">
	<g>
		<path class="st0" d="M142.5,91.6c2.3,0,4.1-2,4.1-4.5l-0.3-31.7c0-2.4-1.9-4.4-4.2-4.4l0,0l-17.4,0.2c-1.1,0-2.1,0.5-2.9,1.3
			c-0.8,0.8-1.2,2-1.2,3.2l0.3,31.7c0,2.4,1.9,4.4,4.2,4.4C125.1,91.8,142.5,91.6,142.5,91.6z"/>
		<path class="st0" d="M137.6,123.7c-0.2,1.5,0.2,2.9,1.1,4c1,1.1,2.4,1.8,3.8,1.8c0.9,0,1.7-0.2,2.4-0.6l3.1-1.7
			c0.5-0.3,1.1-0.4,1.7-0.4c0.5,0,1.1,0.1,1.5,0.4l3.2,1.6c0.7,0.4,1.5,0.5,2.2,0.5c1.5,0,2.9-0.7,3.9-1.9c1-1.2,1.3-2.6,1-4.1
			l-0.7-3.5c-0.2-1.1,0.1-2.3,0.9-3.1l2.5-2.6c1.4-1.4,1.8-3.4,1.2-5.2s-2.2-3.1-4.1-3.3l-3.6-0.4c-1.1-0.1-2.1-0.8-2.6-1.8
			l-1.7-3.2c-0.9-1.7-2.6-2.7-4.5-2.7c-2,0-3.7,1.1-4.6,2.9l-1.5,3.2c-0.5,1-1.4,1.8-2.6,1.9L137,106c-1.9,0.3-3.4,1.7-4,3.5
			s0,3.8,1.4,5.1l2.6,2.4c0.8,0.8,1.2,1.9,1.1,3L137.6,123.7z M138.3,123.8c0,0.2,0,0.4,0,0.6C138.3,124.2,138.3,124,138.3,123.8z
			 M138.3,124.9c0-0.1,0-0.3,0-0.4C138.3,124.7,138.3,124.8,138.3,124.9z M138.9,126.6c-0.1-0.1-0.1-0.2-0.2-0.4
			C138.8,126.4,138.8,126.5,138.9,126.6z M138.7,126.2c-0.1-0.2-0.1-0.3-0.2-0.5C138.5,125.8,138.6,126,138.7,126.2z M138.4,125.5
			c0-0.1-0.1-0.3-0.1-0.4C138.4,125.3,138.4,125.4,138.4,125.5z M139,126.8c0.1,0.1,0.1,0.2,0.2,0.3
			C139.1,127,139.1,126.9,139,126.8z M139.3,127.2c0.1,0.1,0.2,0.2,0.3,0.3C139.5,127.4,139.4,127.3,139.3,127.2z M142.4,128.7
			c0.1,0,0.2,0,0.4,0c-0.1,0-0.1,0-0.2,0S142.4,128.7,142.4,128.7z M139.7,127.6c0.1,0.1,0.3,0.2,0.4,0.3
			C139.9,127.8,139.8,127.7,139.7,127.6z M140.2,128c0.1,0.1,0.2,0.1,0.3,0.2C140.4,128.1,140.3,128,140.2,128z M140.7,128.2
			c0.1,0.1,0.2,0.1,0.3,0.2C140.9,128.3,140.8,128.3,140.7,128.2z M141.2,128.4c0.2,0.1,0.3,0.1,0.5,0.1
			C141.5,128.5,141.3,128.5,141.2,128.4z M141.7,128.6c0.1,0,0.3,0,0.4,0.1C142,128.6,141.9,128.6,141.7,128.6z M144,128.4
			c0.2-0.1,0.4-0.2,0.5-0.3C144.4,128.2,144.2,128.3,144,128.4z M142.9,128.6c0.1,0,0.2,0,0.3,0C143.2,128.6,143,128.6,142.9,128.6z
			 M143.5,128.6c0.1,0,0.2-0.1,0.4-0.1C143.7,128.5,143.6,128.5,143.5,128.6z M147.7,126.4c0.2-0.1,0.3-0.2,0.5-0.2
			C148,126.2,147.9,126.3,147.7,126.4z M149.7,125.9c-0.1,0-0.2,0-0.3,0C149.5,125.9,149.6,125.9,149.7,125.9z M149.7,98.2
			c0.1,0,0.2,0,0.3,0.1C149.9,98.2,149.8,98.2,149.7,98.2z M148.4,126.1c0.1,0,0.2-0.1,0.3-0.1C148.6,126,148.5,126.1,148.4,126.1z
			 M148.9,126c0.1,0,0.2,0,0.3-0.1C149.1,125.9,149,125.9,148.9,126z M150,125.9c0.1,0,0.1,0,0.2,0
			C150.2,125.9,150.1,125.9,150,125.9z M150.5,125.9c0.1,0,0.1,0,0.2,0C150.7,126,150.6,125.9,150.5,125.9z M151,126.1
			c0.1,0,0.1,0,0.2,0C151.1,126.1,151.1,126.1,151,126.1z M151.7,126.3L151.7,126.3L151.7,126.3l3.2,1.6c0.2,0.1,0.4,0.2,0.5,0.2
			c-0.2-0.1-0.4-0.1-0.5-0.2L151.7,126.3z M150.2,98.3c0.1,0,0.2,0.1,0.3,0.1C150.4,98.3,150.3,98.3,150.2,98.3z M150.8,98.4
			c0.1,0,0.2,0.1,0.3,0.1C151,98.5,150.9,98.5,150.8,98.4z M151.3,98.7c0.1,0.1,0.2,0.1,0.3,0.2C151.5,98.8,151.4,98.7,151.3,98.7z
			 M155.6,128.2c0.1,0,0.3,0.1,0.4,0.1C155.8,128.2,155.7,128.2,155.6,128.2z M156.2,128.3c0.1,0,0.3,0,0.4,0
			C156.4,128.3,156.3,128.3,156.2,128.3z M156.7,128.4c0.2,0,0.4,0,0.5,0C157.1,128.3,156.9,128.4,156.7,128.4L156.7,128.4z
			 M159.3,127.5c0.1-0.1,0.3-0.2,0.4-0.3C159.6,127.3,159.5,127.4,159.3,127.5z M157.3,128.3c0.2,0,0.3-0.1,0.5-0.1
			C157.6,128.3,157.4,128.3,157.3,128.3z M157.9,128.2c0.1,0,0.2-0.1,0.3-0.1C158.1,128.1,158,128.2,157.9,128.2z M158.4,128
			c0.1,0,0.2-0.1,0.3-0.2C158.7,127.9,158.5,128,158.4,128z M158.9,127.8c0.1-0.1,0.3-0.2,0.4-0.3
			C159.2,127.6,159,127.7,158.9,127.8z M160.2,126.6c0.1-0.1,0.1-0.2,0.2-0.3C160.3,126.4,160.3,126.5,160.2,126.6z M159.8,127
			c0.1-0.1,0.2-0.2,0.2-0.3C160,126.8,159.9,126.9,159.8,127z M160.5,126.2c0.1-0.2,0.2-0.3,0.2-0.5
			C160.6,125.9,160.6,126,160.5,126.2z M161,124.5c0-0.1,0-0.3,0-0.4C161,124.2,161,124.3,161,124.5z M160.7,125.7
			c0.1-0.2,0.1-0.3,0.2-0.5C160.8,125.4,160.8,125.5,160.7,125.7z M160.9,125c0-0.1,0-0.2,0.1-0.4C161,124.8,160.9,124.9,160.9,125z
			 M161,123.9c0-0.2,0-0.4-0.1-0.6C161,123.5,161,123.7,161,123.9z M152.9,100.4l1.7,3.2c0.2,0.5,0.6,0.9,0.9,1.2
			c-0.4-0.3-0.7-0.7-0.9-1.2L152.9,100.4c-0.1-0.2-0.2-0.4-0.3-0.5C152.7,100,152.8,100.2,152.9,100.4z M152.5,99.7
			c-0.1-0.1-0.2-0.2-0.3-0.3C152.3,99.5,152.4,99.6,152.5,99.7z M151.8,99c0.1,0.1,0.2,0.2,0.3,0.2C152,99.2,151.9,99.1,151.8,99z
			 M149.4,98.1c-0.1,0-0.2,0-0.3,0l0,0C149.3,98.1,149.3,98.1,149.4,98.1z M148,98.3c0.1,0,0.2,0,0.3-0.1
			C148.2,98.3,148.1,98.3,148,98.3z M148.6,98.2c0.1,0,0.2,0,0.3,0C148.7,98.2,148.6,98.2,148.6,98.2z M146.2,99.3
			c-0.1,0.1-0.1,0.1-0.2,0.2C146.1,99.5,146.1,99.4,146.2,99.3z M147.7,98.4c-0.1,0-0.2,0.1-0.2,0.1S147.6,98.4,147.7,98.4z
			 M147.2,98.6c-0.1,0-0.2,0.1-0.2,0.1C147,98.7,147.1,98.7,147.2,98.6z M146.7,99c-0.1,0-0.1,0.1-0.2,0.1
			C146.5,99,146.6,99,146.7,99z M145.8,99.8c0,0.1-0.1,0.1-0.1,0.2C145.7,99.9,145.7,99.9,145.8,99.8z"/>
		<path class="st0" d="M121.8,39.9c-0.2,1.5,0.2,2.9,1.1,4c1,1.1,2.4,1.8,3.8,1.8c0.9,0,1.7-0.2,2.4-0.6l3.1-1.7
			c0.5-0.3,1.1-0.4,1.7-0.4c0.5,0,1.1,0.1,1.5,0.4l3.2,1.6c0.7,0.4,1.5,0.5,2.2,0.5c1.5,0,2.9-0.7,3.9-1.9s1.3-2.6,1-4.1L145,36
			c-0.2-1.1,0.1-2.3,0.9-3.1l2.5-2.6c1.4-1.4,1.8-3.4,1.2-5.2s-2.2-3.1-4.1-3.3l-3.6-0.4c-1.1-0.1-2.1-0.8-2.6-1.8l-1.7-3.2
			c-0.9-1.7-2.6-2.7-4.5-2.7c-2,0-3.7,1.1-4.6,2.9l-1.5,3.2c-0.5,1-1.4,1.8-2.6,1.9l-3.5,0.6c-1.9,0.3-3.4,1.7-4,3.5s0,3.8,1.4,5.1
			l2.6,2.4c0.8,0.8,1.2,1.9,1.1,3L121.8,39.9z M122.6,40c0,0.2,0,0.4,0,0.6C122.6,40.4,122.6,40.2,122.6,40z M122.6,41.2
			c0-0.1,0-0.3,0-0.4C122.6,40.9,122.6,41,122.6,41.2z M123.2,42.9c-0.1-0.1-0.1-0.2-0.2-0.4C123,42.6,123.1,42.7,123.2,42.9z
			 M122.9,42.4c-0.1-0.2-0.1-0.3-0.2-0.5C122.8,42.1,122.8,42.2,122.9,42.4z M122.7,41.8c0-0.1-0.1-0.3-0.1-0.4
			C122.6,41.5,122.7,41.6,122.7,41.8z M123.3,43c0.1,0.1,0.1,0.2,0.2,0.3C123.4,43.2,123.3,43.1,123.3,43z M123.6,43.4
			c0.1,0.1,0.2,0.2,0.3,0.3C123.8,43.6,123.7,43.5,123.6,43.4z M126.6,44.9c0.1,0,0.2,0,0.4,0c-0.1,0-0.1,0-0.2,0
			C126.7,44.9,126.7,44.9,126.6,44.9z M123.9,43.8c0.1,0.1,0.3,0.2,0.4,0.3C124.2,44,124.1,43.9,123.9,43.8z M124.5,44.2
			c0.1,0.1,0.2,0.1,0.3,0.2C124.7,44.3,124.6,44.3,124.5,44.2z M124.9,44.5c0.1,0.1,0.2,0.1,0.3,0.2C125.2,44.6,125,44.5,124.9,44.5
			z M125.4,44.7c0.2,0.1,0.3,0.1,0.5,0.1C125.7,44.8,125.6,44.7,125.4,44.7z M126,44.8c0.1,0,0.3,0,0.4,0.1
			C126.3,44.9,126.1,44.8,126,44.8z M128.3,44.6c0.2-0.1,0.4-0.2,0.5-0.3C128.7,44.5,128.5,44.5,128.3,44.6z M127.2,44.9
			c0.1,0,0.2,0,0.3,0C127.4,44.8,127.3,44.9,127.2,44.9z M127.7,44.8c0.1,0,0.2-0.1,0.4-0.1C128,44.7,127.9,44.8,127.7,44.8z
			 M132,42.6c0.2-0.1,0.3-0.2,0.5-0.2C132.3,42.5,132.1,42.5,132,42.6z M134,42.1c-0.1,0-0.2,0-0.3,0
			C133.8,42.1,133.9,42.1,134,42.1z M133.9,14.4c0.1,0,0.2,0,0.3,0.1C134.1,14.4,134,14.4,133.9,14.4z M132.6,42.3
			c0.1,0,0.2-0.1,0.3-0.1C132.8,42.3,132.7,42.3,132.6,42.3z M133.2,42.2c0.1,0,0.2,0,0.3-0.1C133.4,42.1,133.3,42.2,133.2,42.2z
			 M134.3,42.1c0.1,0,0.1,0,0.2,0C134.4,42.1,134.3,42.1,134.3,42.1z M134.8,42.2c0.1,0,0.1,0,0.2,0
			C134.9,42.2,134.8,42.2,134.8,42.2z M135.3,42.3c0.1,0,0.1,0,0.2,0C135.4,42.3,135.3,42.3,135.3,42.3z M135.9,42.5L135.9,42.5
			L135.9,42.5l3.2,1.6c0.2,0.1,0.4,0.2,0.5,0.2c-0.2-0.1-0.4-0.1-0.5-0.2L135.9,42.5z M134.5,14.5c0.1,0,0.2,0.1,0.3,0.1
			C134.7,14.6,134.6,14.5,134.5,14.5z M135,14.7c0.1,0,0.2,0.1,0.3,0.1C135.2,14.8,135.1,14.7,135,14.7z M135.5,14.9
			c0.1,0.1,0.2,0.1,0.3,0.2C135.7,15,135.6,15,135.5,14.9z M139.8,44.4c0.1,0,0.3,0.1,0.4,0.1C140.1,44.5,140,44.4,139.8,44.4z
			 M140.4,44.5c0.1,0,0.3,0,0.4,0C140.7,44.6,140.5,44.6,140.4,44.5z M141,44.6c0.2,0,0.4,0,0.5,0C141.3,44.6,141.2,44.6,141,44.6
			L141,44.6z M143.6,43.7c0.1-0.1,0.3-0.2,0.4-0.3C143.9,43.5,143.7,43.6,143.6,43.7z M141.5,44.6c0.2,0,0.3-0.1,0.5-0.1
			C141.8,44.5,141.7,44.5,141.5,44.6z M142.2,44.4c0.1,0,0.2-0.1,0.3-0.1C142.4,44.4,142.3,44.4,142.2,44.4z M142.7,44.2
			c0.1,0,0.2-0.1,0.3-0.2C142.9,44.1,142.8,44.2,142.7,44.2z M143.1,44c0.1-0.1,0.3-0.2,0.4-0.3C143.4,43.8,143.3,43.9,143.1,44z
			 M144.4,42.8c0.1-0.1,0.1-0.2,0.2-0.3C144.6,42.6,144.5,42.7,144.4,42.8z M144.1,43.3c0.1-0.1,0.2-0.2,0.2-0.3
			C144.2,43.1,144.2,43.2,144.1,43.3z M144.7,42.4c0.1-0.2,0.2-0.3,0.2-0.5C144.9,42.1,144.8,42.3,144.7,42.4z M145.2,40.7
			c0-0.1,0-0.3,0-0.4C145.3,40.4,145.3,40.6,145.2,40.7z M145,41.9c0.1-0.2,0.1-0.3,0.2-0.5C145.1,41.6,145,41.8,145,41.9z
			 M145.2,41.3c0-0.1,0-0.2,0.1-0.4C145.2,41,145.2,41.1,145.2,41.3z M145.2,40.1c0-0.2,0-0.4-0.1-0.6
			C145.2,39.7,145.2,39.9,145.2,40.1z M137.2,16.6l1.7,3.2c0.2,0.5,0.6,0.9,0.9,1.2c-0.4-0.3-0.7-0.7-0.9-1.2L137.2,16.6
			c-0.1-0.2-0.2-0.4-0.3-0.5C137,16.3,137.1,16.4,137.2,16.6z M136.7,15.9c-0.1-0.1-0.2-0.2-0.3-0.3
			C136.6,15.7,136.6,15.8,136.7,15.9z M136,15.2c0.1,0.1,0.2,0.2,0.3,0.2C136.2,15.4,136.1,15.3,136,15.2z M133.7,14.4
			c-0.1,0-0.2,0-0.3,0l0,0C133.5,14.4,133.6,14.4,133.7,14.4z M132.2,14.5c0.1,0,0.2,0,0.3-0.1C132.4,14.5,132.3,14.5,132.2,14.5z
			 M132.8,14.4c0.1,0,0.2,0,0.3,0C133,14.4,132.9,14.4,132.8,14.4z M130.5,15.6c-0.1,0.1-0.1,0.1-0.2,0.2
			C130.3,15.7,130.4,15.6,130.5,15.6z M131.9,14.6c-0.1,0-0.2,0.1-0.2,0.1C131.8,14.7,131.9,14.7,131.9,14.6z M131.4,14.9
			c-0.1,0-0.2,0.1-0.2,0.1C131.3,14.9,131.3,14.9,131.4,14.9z M130.9,15.2c-0.1,0-0.1,0.1-0.2,0.1C130.8,15.3,130.8,15.2,130.9,15.2
			z M130,16.1c0,0.1-0.1,0.1-0.1,0.2C129.9,16.2,130,16.1,130,16.1z"/>
		<path class="st0" d="M161.1,89.4l17.4,0.3c0,0,0,0,0.1,0c2.3,0,4.1-1.8,4.2-4.1l0.4-37.6c0.1-7.8,3.3-11.7,9.3-11.7
			c0.1,0,0.2,0,0.2,0c2,0,3.2,0.3,3.9,0.5c2,0.6,4.1-0.4,4.9-2.3l5.5-12.4c0.8-1.8,0.2-3.9-1.3-5c-2.2-1.6-5.5-3.5-10.4-3.6
			c-6.4-0.1-9.8,4.5-11.7,8.1v-2.8c0-2.3-1.8-4.2-4.1-4.2l-17.4-0.3c-1.1,0-2.2,0.4-3,1.2s-1.2,1.8-1.3,2.9l-0.9,66.9
			c0,1.1,0.4,2.2,1.2,3C159,89,160,89.4,161.1,89.4z"/>
		<path class="st0" d="M207.9,40.6l3,5.5c0.6,1,1.6,1.8,2.7,2.1c1.2,0.3,2.3,0.2,3.4-0.5c2.9-1.7,6.3-2.2,10.2-1.5
			c1.4,0.3,3.2,1.8,3.2,2.8c0,0.1,0,0.1,0,0.2l-8.2,1.6c-15.7,3.1-22.4,9.1-23,20.8c-0.2,4.8,1.5,9.4,4.8,12.9
			c3.1,3.2,7.2,5.2,11.3,5.4c4.4,0.2,8.9-1.9,12.7-3.7c0.7-0.3,1.4-0.7,2.1-1c0,0.2,0.1,0.5,0.1,0.7c0.3,2,2,3.6,4.1,3.7l16.7,0.8
			c0.1,0,0.1,0,0.2,0c1.3,0,2.4-0.5,3.3-1.5s1.3-2.4,1-3.7c-0.5-2.6-0.6-5.7-0.4-9.3l0.9-17.2c0.4-8.7-1.9-16-6.7-21.3
			c-4.3-4.7-10.5-7.5-17.4-7.8c-8.3-0.4-15.4,1.2-22.4,5C207.5,35.8,206.7,38.5,207.9,40.6z M229.3,61.7l4.2-0.3l0,0
			c0.2,0,0.4,0.1,0.5,0.2c0.1,0.1,0.2,0.3,0.1,0.6c-4,12.5-10.2,15.6-13.4,14.6c-2.2-0.7-3.9-3.7-2.9-6.7
			C219.4,65.2,223.9,61.9,229.3,61.7z"/>
		<path class="st0" d="M117.9,108.8c-4-4-9.8-5.7-17.4-5.2c-8.7,0.7-14.4,5.2-17,7.8c-4.9,4.8-7.1,13.7-8.4,19
			c-0.1,0.3-0.2,0.7-0.3,1c-7.8-5.7-19.3-5-25.2-3.6c-18.1,4.4-24.1,17.6-23.6,28.5l1,23.4c0.1,2.4,1.9,4.3,4.1,4.3
			c0.1,0,0.2,0,0.2,0l17.2-1.1c2.3-0.1,4-2.3,3.9-4.8l-0.6-16c-0.4-7.9,1.8-9.6,6-9.9c3.6-0.3,4.9,4.1,5,6.4l0.4,13.3
			c0.1,2.5,2.1,4.5,4.3,4.3l17.2-1.1c2.3-0.1,4-2.3,3.9-4.8l-0.4-33.2c-0.2-3.6,0.2-6.1,1.1-7.7c0.6-0.9,1.7-2.1,4.9-2.3
			c3-0.2,4.8,3.2,5,6.4l0.6,36c0.1,2.5,2.1,4.5,4.3,4.3l17.2-1.1c2.3-0.1,4-2.3,3.9-4.8l-0.6-40.5
			C124.2,119.1,121.9,112.8,117.9,108.8z"/>
		<path class="st0" d="M277.6,101.5c0-1.2-0.4-2.3-1.2-3.1c-0.8-0.8-1.7-1.3-2.8-1.2l-16.4,0.2c-2.2,0.1-3.9,2-3.8,4.4l-0.3,37
			c0.1,8.1-4,8.9-5.4,9c0,0,0,0-0.1,0c-1.6,0-2.9-0.7-3.8-2c-0.8-1.2-1.3-2.9-1.3-4.6c0-1.9,0-18.4-0.1-19.7
			c-0.4-6.3-2.8-11.5-7.1-15.3c-9.5-8.5-26.7-8.1-35.3-6.6c-3.1,0.6-11.2,2.4-18.4,7.3c-7.3,4.9-11.3,11.6-11.6,19.2
			c-0.3,6.9,3.2,12.5,10.2,16.6c4.7,2.7,5.5,4.8,5.4,8.1c-0.1,2-0.7,3.6-2,4.8c-3.2,2.9-9.8,3.1-15,2.1c-1.9-0.4-4-0.9-6-1.6
			l-0.2-16.9c0-2.3-1.9-4.1-4.2-4.1l0,0l-17.4,0.2c-1.1,0-2.1,0.5-2.9,1.3c-0.8,0.8-1.2,1.9-1.2,3l0.3,30c0,2.3,3.9,14.4,34.3,14.4
			c0.8,0,1.8,0,2.8,0c7.5-0.2,20.9-2,29-11.4c4.9-5.6,7.2-13.1,6.9-22.2v-0.2c-0.2-3.8-1.6-12.9-8.7-15.7h-0.1
			c-4.7-1.5-6.6-4.4-5.8-9.4c0.6-4,7.3-7.5,13.2-7c3.4,0.3,9.2,2.2,9.4,11.3c0,0.3,0.3,14.3,0.3,14.3c0.1,7.7,1.9,13.7,5.3,17.8
			c3.4,4.1,8.1,6.1,14.1,6c6.4-0.1,11.6-2.3,15.9-6.9v0.9c0,1.2,0.4,2.3,1.2,3.1c0.8,0.8,1.7,1.3,2.8,1.2l16.2-0.2
			c1,0,2-0.5,2.7-1.3s1.1-1.9,1.1-3.1L277.6,101.5z"/>
		<path class="st0" d="M36.7,118.6c5,0.4,9.5,0.3,11.4,0c12.6-2.1,20.1-11.3,22.3-27.5V91l0.4-26.8c14.3,4.8,17.5,15.1,20.6,30
			c0.4,2.1,2.7,3,4.6,2.7l15.3-2.5c1.2-0.2,2.1-0.8,2.8-1.7c0.7-1.1,0.9-2.7,0.5-4.3c-0.6-2.1-1.1-4.3-1.6-6.4
			c-3.3-13.1-6.7-26.7-22.1-31.4l17.7-26.2c0.8-1.2,1-2.7,0.4-4c-0.5-1.3-1.7-2.3-3.1-2.6l-15.2-3.4c-1.8-0.4-3.7,0.4-4.6,2
			L70.6,41.7L71,19c0.1-2.4-1.8-4.4-4.2-4.4l-18.7-0.4c-2.4-0.1-3.8,2.6-4.2,3.4L43.7,18l2.8,69.1c0,1,0,1.9-0.2,2.6
			c-0.7,3.9-4.5,6.2-7.7,6.2c-0.1,0-11.9-0.4-13.1-12.1l-0.6-8c0-2.4-2-4.4-4.3-4.4L6.8,72.2c-2.4,0-4.3,1.8-4.5,4.2
			c-0.5,6.7,1.8,26.6,17.9,37.8C23.7,116.8,30.6,118.1,36.7,118.6z"/>
	</g>
</g>
<g id="Layer_2_00000008117637470415590580000018163163919701039254_" class="st1">
	<g class="st2">
		<g>
			<path class="st3" d="M125.7,43.5c-0.7,0-1.4,0-2.1-0.1c-6.5-0.6-12.5-3.9-16.6-9c-3.2-4.1-5-9.3-5.1-14.6
				c-4.8-6.1-6.4-14.1-4.1-21.6c2.2-7.5,8-13.3,15.3-15.7c4.4-6.6,11.8-10.6,19.8-10.6c0.7,0,1.4,0,2.1,0.1c6.8,0.6,13,4.1,17,9.6
				c7.5,2.1,13.4,7.7,16,15c2.6,7.4,1.4,15.5-3.2,21.7c0.3,6.2-1.9,12.2-6.1,16.9c-4.5,5-10.9,7.9-17.7,7.9c-0.7,0-1.4,0-2.1-0.1
				c-1.8-0.2-3.5-0.5-5.2-1.1C131.3,43,128.6,43.5,125.7,43.5z"/>
			<path class="st3" d="M133-27.6c0.7,0,1.4,0,2.1,0.1c6.8,0.6,12.9,4.1,16.8,9.6c7.4,2,13.3,7.4,15.9,14.8
				c2.6,7.4,1.3,15.3-3.2,21.4c0.3,6.1-1.8,12.1-6,16.7c-4.4,4.9-10.8,7.7-17.3,7.7c-0.7,0-1.4,0-2-0.1c-1.8-0.2-3.5-0.5-5.2-1.1
				c-2.6,1-5.4,1.5-8.2,1.5c-0.7,0-1.4,0-2.1-0.1c-6.4-0.6-12.3-3.8-16.3-8.8c-3.2-4.1-5-9.3-5-14.5c-4.8-5.9-6.4-13.8-4.1-21.3
				c2.2-7.5,7.9-13.2,15.2-15.5C117.8-23.6,125.1-27.6,133-27.6 M133-28.4c-8.1,0-15.5,4-20,10.6c-7.4,2.5-13.2,8.4-15.5,16
				c-2.3,7.6-0.7,15.7,4.1,21.9c0.1,5.3,1.9,10.5,5.2,14.7c4.1,5.2,10.3,8.6,16.9,9.2c0.7,0.1,1.4,0.1,2.2,0.1
				c2.8,0,5.6-0.5,8.2-1.5c1.7,0.5,3.4,0.9,5.1,1c0.7,0.1,1.4,0.1,2.1,0.1c6.8,0,13.4-2.9,18-8c4.2-4.7,6.4-10.7,6.2-17
				c4.6-6.4,5.7-14.6,3.1-22c-2.6-7.4-8.6-13.1-16.1-15.3c-4.1-5.5-10.4-9.1-17.3-9.7C134.4-28.4,133.7-28.4,133-28.4L133-28.4z"/>
		</g>
		<path class="st4" d="M44.2,110.9c-9.1-0.8-16.4-8.1-17-17.5l-4.6-77.2C22,5.9,29.8-2.9,40.1-3.6L63.4-5c1-0.1,1.9,0,2.8,0
			c2.2,0.2,4.2,0.8,6.1,1.6c3.7-2.9,8.4-4.3,13.2-3.9c0.3,0,0.6,0.1,0.9,0.1l20.4,2.9c6.1,0.9,11.4,4.7,14.1,10.2
			c2.7,5.5,2.6,12.1-0.5,17.4l-12,21.2l22.1,29c3.8,5,4.9,11.7,2.7,17.6s-7.1,10.4-13.3,11.9L96,108.6c-2,0.5-4,0.6-6,0.4
			c-3.5-0.3-6.8-1.6-9.6-3.7c-3,2.3-6.6,3.7-10.4,4L47,111C46.1,111,45.1,111,44.2,110.9z"/>
		<path class="st4" d="M121.3,107.4c-9.4-0.8-16.9-8.7-17-18.4l-0.6-55.2c-0.1-10.3,8.2-18.8,18.5-18.9l22.1-0.2
			c0.6,0,1.3,0,1.9,0.1c4.3,0.4,8.3,2.2,11.4,5.3c3.5,3.5,5.6,8.2,5.6,13.1l0.6,55.2c0.1,5-1.9,9.7-5.3,13.3
			c-3.5,3.5-8.2,5.6-13.1,5.6l-22.1,0.2C122.5,107.4,121.9,107.4,121.3,107.4z"/>
		<path class="st4" d="M154.5,107.1c-4.5-0.4-8.6-2.4-11.8-5.6c-3.4-3.6-5.3-8.4-5.2-13.3l1-55.2c0.2-10.3,8.7-18.5,19-18.3
			l22.1,0.4c0.4,0,0.9,0,1.3,0.1c0.8,0.1,1.5,0.2,2.3,0.3c3.7-1.3,7.1-1.6,9.8-1.5c0.9,0,1.8,0.1,2.6,0.1c9.4,0.8,15.8,5.2,19.7,8.4
			c6.5,5.3,8.7,14.4,5.3,22.1l-7.1,16c-2.9,6.6-9.3,10.7-16.2,11.1L197,89.3c-0.2,10.3-8.7,18.5-19,18.3l-22.1-0.4
			C155.4,107.1,154.9,107.1,154.5,107.1z"/>
		<path class="st4" d="M216.4,109.9c-18.4-1.6-32.6-18.1-31.7-36.7c0.5-10.1,4-18.4,10.4-24.8l-1.3-2.4c-4.8-8.8-1.8-19.7,6.7-24.9
			c11-6.7,22.6-9.6,35.6-9c0.7,0,1.4,0.1,2.1,0.1c11.2,1,21.4,5.6,28.6,13c5.9,6.1,12.8,16.9,12,34.2l-1,20c-0.3,5,0.3,6.9,0.4,7
			c1.8,5.8,0.7,12.2-3,17s-9.6,7.5-15.7,7.2l-23-1.1c-0.2,0-0.5,0-0.7-0.1c-1.9-0.2-3.8-0.6-5.6-1.4c-3.7,1.2-8,2-12.5,1.8
			C217.3,110,216.8,110,216.4,109.9z"/>
		<path class="st4" d="M32.3,185.2c-4-0.4-7.8-2-10.8-4.7c-3.7-3.3-5.9-8-6.2-12.9l-2.9-55.2c-0.5-10.3,7.4-19.1,17.7-19.6l21.8-1.1
			c0.9,0,1.8,0,2.6,0c0.8,0.1,1.6,0.2,2.4,0.4c4.8-1.7,9.8-2.5,14.3-2.8c2.2-0.1,4.4-0.1,6.5,0.1c3.7,0.3,7.1,1.1,10.2,2.3
			c5.1-2.3,10.8-3.8,16.6-4.2h0.1c2.8-0.2,5.5-0.1,8.1,0.1c20.2,1.8,32.9,15.9,33.9,37.6l1.9,35.4c0.3,4.9-1.5,9.8-4.8,13.5
			s-8,5.9-12.9,6.2l-22.1,1.2c-0.9,0-1.8,0-2.6,0c-1.7-0.1-3.3-0.5-4.9-1.1c-2.2,1.1-4.7,1.8-7.4,1.9l-22.1,1.2c-0.9,0-1.8,0-2.7,0
			c-1.7-0.2-3.3-0.5-4.9-1.1c-2.2,1.1-4.7,1.8-7.4,1.9l-21.7,1C34.1,185.3,33.2,185.3,32.3,185.2z"/>
		<path class="st4" d="M139.3,180.5c-4.3-0.4-8.3-2.2-11.4-5.2c-3.6-3.5-5.6-8.2-5.7-13.1l-0.7-55.2c-0.1-10.3,8.1-18.8,18.4-18.9
			l22.1-0.3c0.6,0,1.3,0,1.9,0.1c4.3,0.4,8.3,2.2,11.4,5.2c3.6,3.5,5.6,8.2,5.6,13.1l0.7,55.2c0.1,10.3-8.1,18.8-18.4,18.9
			l-22.1,0.3C140.6,180.6,139.9,180.6,139.3,180.5z"/>
		<path class="st4" d="M185.1,181.4c-10.2-0.9-18.8-3.9-25.6-8.7c-7.1-5.1-9.6-14.5-6.2-22.5l4.8-11.2c0.1-0.3,0.3-0.6,0.4-0.9
			c-3.1-6-4-11.9-3.9-16.7c0.1-9.6,4.6-18.9,12.3-25.5c7.3-6.2,17.1-9.6,27.5-9.5c1.7,0,3.4,0.1,5.1,0.3c7.4,0.7,14.5,2.5,21.1,5.6
			c4.5,2.1,8.1,5.9,9.7,10.7c1.7,4.7,1.4,9.9-0.8,14.4l-3.6,7.4c5.1,6.7,7.5,14.6,6.8,23.1c-0.4,8.2-4.8,16.8-12,23.2
			c-7.9,7.1-18.6,10.9-29.9,10.7C189,181.7,187,181.6,185.1,181.4z"/>
		<path class="st4" d="M237.5,183.2c-13.9-1.2-21.8-8.1-26-13.7c-5.7-7.5-8.1-17.1-7.3-28.5l2.6-35.5c0.8-10.3,9.7-18,20-17.3
			c0,0,22.2,1.6,22.3,1.6c2.5,0.2,4.9,0.9,7,2c2.3-0.8,4.9-1.2,7.5-1c0,0,22.2,1.6,22.3,1.6c4.8,0.4,9.3,2.7,12.5,6.4
			s4.9,8.6,4.5,13.6l-4,55.1c-0.4,4.9-2.7,9.5-6.4,12.8c-3.8,3.2-8.6,4.9-13.6,4.5c0,0-22-1.6-22.1-1.6c-1.7-0.2-3.3-0.5-4.9-1.1
			c-4.3,1.1-8.9,1.4-13.6,1.1C238,183.3,237.7,183.2,237.5,183.2z"/>
	</g>
</g>
</svg>
