<svg width="809" height="286" viewBox="0 0 809 286" fill="none" xmlns="http://www.w3.org/2000/svg">
<g filter="url(#filter0_d_116_1317)">
<path fill-rule="evenodd" clip-rule="evenodd" d="M695.886 234.867C636.195 249.595 554.093 251.146 463.772 251.254L432.623 269.129C426.3 272.758 418.499 274.336 411.145 274.332C403.792 274.328 395.993 272.743 389.678 269.106L358.57 251.19C264.819 250.927 179.3 249.001 117.03 234.243C85.6273 226.801 59.2626 215.91 40.6489 199.609C21.7048 183.019 11.2213 161.184 11.2213 133.288C11.2213 103.255 23.364 80.121 44.8983 62.828C66.0489 45.843 95.9506 34.7106 131.457 27.2484C202.449 12.3281 299.513 11.4055 403.835 11.4055C407.955 11.4055 412.062 11.4046 416.157 11.4037L416.989 11.4035C518.181 11.3808 612.086 11.3598 680.694 25.6681C715.126 32.8489 744.154 43.8127 764.681 60.9588C785.587 78.4209 797.196 101.912 797.196 132.557C797.196 160.835 787.308 182.991 769.17 199.854C751.327 216.443 726.025 227.431 695.886 234.867ZM778.699 131.647C778.699 235.868 637.223 239.91 453.792 239.871L428.476 256.134C419.182 262.104 404.115 262.104 394.821 256.134L369.414 239.812C178.255 239.496 28.4647 233.816 28.4647 131.647C28.4647 23.4625 196.41 23.4625 403.582 23.4625C412.615 23.4625 421.574 23.4522 430.448 23.4421L430.45 23.4421C625.082 23.2203 778.699 23.0453 778.699 131.647Z" fill="#E2317F"/>
<g filter="url(#filter1_d_116_1317)">
<path fill-rule="evenodd" clip-rule="evenodd" d="M453.792 239.871C637.223 239.91 778.699 235.868 778.699 131.647C778.699 23.0453 625.082 23.2203 430.45 23.4421C421.576 23.4522 412.616 23.4625 403.582 23.4625C196.41 23.4625 28.4647 23.4625 28.4647 131.647C28.4647 233.816 178.255 239.496 369.414 239.812L394.821 256.134C404.115 262.104 419.182 262.104 428.476 256.134L453.792 239.871Z" fill="#C0BFC2" fill-opacity="0.113725" shape-rendering="crispEdges"/>
</g>
</g>
<path d="M742.367 176.675C745.616 172.017 752.928 174.237 753.038 179.915L753.279 192.355L765.185 195.97C770.619 197.62 770.767 205.26 765.401 207.119L753.644 211.193L753.885 223.633C753.995 229.312 746.775 231.813 743.348 227.284L735.841 217.361L724.084 221.435C718.718 223.294 714.107 217.201 717.356 212.542L724.473 202.336L716.966 192.413C713.539 187.884 717.91 181.616 723.344 183.266L735.25 186.881L742.367 176.675Z" fill="#FBDB31"/>
<path d="M772.342 155.862C773.446 152.489 778.221 152.499 779.311 155.877L781.698 163.278L789.474 163.295C793.023 163.302 794.489 167.847 791.613 169.927L785.312 174.484L787.7 181.885C788.789 185.263 784.92 188.061 782.053 185.969L775.772 181.385L769.471 185.942C766.595 188.022 762.738 185.207 763.842 181.834L766.26 174.444L759.979 169.859C757.112 167.767 758.598 163.229 762.147 163.236L769.923 163.253L772.342 155.862Z" fill="#FBDB31"/>
<path d="M73.3585 81.4478C70.6826 86.457 63.1599 85.1155 62.3805 79.49L60.6727 67.165L48.4232 64.9806C42.8322 63.9835 41.7834 56.4145 46.8927 53.9349L58.0868 48.5021L56.379 36.177C55.5995 30.5516 62.474 27.2152 66.4111 31.3081L75.0372 40.2755L86.2313 34.8427C91.3405 32.363 96.6379 37.87 93.962 42.8792L88.0991 53.8542L96.7252 62.8215C100.662 66.9144 97.0619 73.6543 91.4709 72.6573L79.2214 70.4728L73.3585 81.4478Z" fill="#FBDB31"/>
<path d="M46.0508 105.653C45.3527 109.133 40.6094 109.686 39.1288 106.461L35.8849 99.3934L28.1612 100.295C24.6359 100.706 22.6437 96.3661 25.2539 93.9611L30.9727 88.6921L27.7288 81.6249C26.2482 78.3993 29.7602 75.1635 32.854 76.9028L39.6324 80.7135L45.3512 75.4445C47.9614 73.0395 52.1241 75.3797 51.426 78.8596L49.8965 86.4838L56.6748 90.2945C59.7687 92.0338 58.8293 96.7159 55.3041 97.1273L47.5804 98.0286L46.0508 105.653Z" fill="#FBDB31"/>
<defs>
<filter id="filter0_d_116_1317" x="0.321314" y="0.501719" width="807.775" height="284.73" filterUnits="userSpaceOnUse" color-interpolation-filters="sRGB">
<feFlood flood-opacity="0" result="BackgroundImageFix"/>
<feColorMatrix in="SourceAlpha" type="matrix" values="0 0 0 0 0 0 0 0 0 0 0 0 0 0 0 0 0 0 127 0" result="hardAlpha"/>
<feOffset/>
<feGaussianBlur stdDeviation="5.45"/>
<feComposite in2="hardAlpha" operator="out"/>
<feColorMatrix type="matrix" values="0 0 0 0 0 0 0 0 0 0 0 0 0 0 0 0 0 0 0.35 0"/>
<feBlend mode="normal" in2="BackgroundImageFix" result="effect1_dropShadow_116_1317"/>
<feBlend mode="normal" in="SourceGraphic" in2="effect1_dropShadow_116_1317" result="shape"/>
</filter>
<filter id="filter1_d_116_1317" x="28.4647" y="23.4224" width="750.234" height="241.189" filterUnits="userSpaceOnUse" color-interpolation-filters="sRGB">
<feFlood flood-opacity="0" result="BackgroundImageFix"/>
<feColorMatrix in="SourceAlpha" type="matrix" values="0 0 0 0 0 0 0 0 0 0 0 0 0 0 0 0 0 0 127 0" result="hardAlpha"/>
<feOffset dy="4"/>
<feComposite in2="hardAlpha" operator="out"/>
<feColorMatrix type="matrix" values="0 0 0 0 0 0 0 0 0 0 0 0 0 0 0 0 0 0 0.25 0"/>
<feBlend mode="normal" in2="BackgroundImageFix" result="effect1_dropShadow_116_1317"/>
<feBlend mode="normal" in="SourceGraphic" in2="effect1_dropShadow_116_1317" result="shape"/>
</filter>
</defs>
</svg>
