<svg width="25" height="36" viewBox="0 0 25 36" fill="none" xmlns="http://www.w3.org/2000/svg">
<path d="M5.02334 30.765C5.02334 29.2617 5.48168 28.0333 6.39834 27.08C7.35168 26.09 8.65335 25.595 10.3033 25.595C11.9533 25.595 13.2367 26.09 14.1533 27.08C15.1067 28.0333 15.5833 29.2617 15.5833 30.765C15.5833 32.2683 15.1067 33.515 14.1533 34.505C13.2367 35.4583 11.9533 35.935 10.3033 35.935C8.65335 35.935 7.35168 35.4583 6.39834 34.505C5.48168 33.515 5.02334 32.2683 5.02334 30.765ZM6.83835 23.56C6.21501 23.23 5.62834 22.6433 5.07834 21.8C4.52834 20.92 4.25334 19.8933 4.25334 18.72C4.25334 17.5833 4.54668 16.74 5.13334 16.19C5.75668 15.6033 6.65501 15.1633 7.82835 14.87L12.1183 13.825C13.9517 13.3483 14.8683 12.4683 14.8683 11.185C14.8683 10.4883 14.52 9.88332 13.8233 9.36999C13.1633 8.85665 12.0083 8.59999 10.3583 8.59999C8.85501 8.59999 7.44335 8.80165 6.12334 9.20498C4.80334 9.57165 3.74001 10.0117 2.93334 10.525C2.31001 10.0483 1.77834 9.47999 1.33834 8.81999C0.898345 8.12332 0.678345 7.29832 0.678345 6.34499C0.678345 5.39165 0.953345 4.56665 1.50334 3.86998C2.05334 3.13665 2.80501 2.54998 3.75834 2.10998C4.74834 1.63332 5.90334 1.28498 7.22334 1.06498C8.58001 0.844984 10.065 0.734985 11.6783 0.734985C16.005 0.734985 19.2683 1.70665 21.4683 3.64998C23.705 5.55665 24.8233 8.06832 24.8233 11.185C24.8233 17.0517 20.68 20.81 12.3933 22.46L6.83835 23.56Z" fill="white" fill-opacity="0.2"/>
</svg>
