<svg width="85" height="62" viewBox="0 0 85 62" fill="none" xmlns="http://www.w3.org/2000/svg">
<path fill-rule="evenodd" clip-rule="evenodd" d="M21.3748 61.5765C15.5487 61.5765 10.5718 59.5598 6.4436 55.5265C2.31555 51.4931 0.250244 46.5635 0.247681 40.7376C0.247681 35.7439 1.7522 31.2944 4.76123 27.3891C7.77014 23.4839 11.7075 20.987 16.5731 19.8987C18.1736 14.0087 21.3748 9.23912 26.1763 5.5899C30.9779 1.94069 36.4197 0.116089 42.5017 0.116089C49.9922 0.116089 56.3469 2.7256 61.5659 7.94461C66.785 13.1636 69.3932 19.5171 69.3906 27.005C73.8081 27.5172 77.474 29.4225 80.3882 32.7208C83.3025 36.0192 84.7583 39.8759 84.7557 44.2908C84.7557 49.0924 83.0758 53.1744 79.7159 56.5368C76.3562 59.8992 72.2742 61.5791 67.47 61.5765H21.3748ZM46.3678 22.503C47.8671 22.6935 48.928 24.0634 48.7375 25.5626C48.2969 29.0307 47.8782 37.5318 47.9628 42.993C47.9862 44.5041 46.7802 45.7481 45.269 45.7715C43.7579 45.7949 42.5139 44.5889 42.4905 43.0778C42.403 37.4314 42.8268 28.6618 43.3082 24.8727C43.4988 23.3735 44.8685 22.3125 46.3678 22.503ZM26.2137 25.0043C26.1038 23.497 27.2366 22.1859 28.7439 22.076C30.2511 21.966 31.5623 23.0988 31.6721 24.6061C31.9501 28.4155 31.9036 37.1953 31.5138 42.8289C31.4095 44.3366 30.1027 45.4742 28.595 45.3699C27.0873 45.2656 25.9496 43.9588 26.054 42.4511C26.4309 37.0023 26.468 28.491 26.2137 25.0043Z" fill="#3A45EC"/>
</svg>
