<svg width="67" height="64" viewBox="0 0 67 64" fill="none" xmlns="http://www.w3.org/2000/svg">
<path fill-rule="evenodd" clip-rule="evenodd" d="M22.9899 4.25725C24.9948 2.25304 27.5419 0.878891 30.3178 0.304001C33.0936 -0.270874 35.9771 -0.0213925 38.613 1.02173C41.2489 2.06487 43.5222 3.85609 45.153 6.17485C46.7837 8.49362 47.7008 11.2387 47.7911 14.0721C51.3944 13.0335 55.2601 13.4326 58.5752 15.1856C61.8901 16.9386 64.3962 19.9088 65.5664 23.4716C66.7222 27.0233 66.4529 30.8899 64.8154 34.2468C63.1779 37.6037 60.3002 40.1931 56.7897 41.4686C58.8717 44.5651 59.6652 48.351 59.0018 52.0229C58.3384 55.6948 56.2704 58.9637 53.2365 61.1359C50.197 63.331 46.4288 64.2709 42.7145 63.7604C39.0001 63.2498 35.6252 61.3281 33.2908 58.3944C31.8369 60.2234 29.965 61.6763 27.8324 62.6306C25.6998 63.585 23.3691 64.0129 21.0366 63.8783C18.7041 63.7437 16.4381 63.0505 14.4294 61.8572C12.4208 60.6639 10.7283 59.0053 9.49451 57.0213C8.04309 54.6772 7.29773 51.9646 7.34803 49.208C7.3982 46.4514 8.2417 43.7676 9.77771 41.478C6.2743 40.182 3.40894 37.5795 1.78284 34.2166C0.156742 30.8537 -0.103634 26.9917 1.05616 23.4409C2.21595 19.8901 4.70581 16.9265 8.00354 15.1718C11.3012 13.4171 15.1501 13.0077 18.7432 14.0296C18.8717 10.3536 20.3893 6.86313 22.9899 4.26196V4.25725ZM42.7391 20.6053C44.2384 20.7958 45.2993 22.1656 45.1089 23.6649C44.6682 27.133 44.2495 35.634 44.3341 41.0952C44.3575 42.6064 43.1515 43.8504 41.6404 43.8738C40.1293 43.8972 38.8853 42.6912 38.8618 41.1801C38.7743 35.5337 39.1981 26.764 39.6796 22.975C39.8701 21.4757 41.2399 20.4148 42.7391 20.6053ZM22.5851 23.1066C22.4751 21.5993 23.6079 20.2882 25.1152 20.1783C26.6224 20.0683 27.9336 21.2011 28.0435 22.7084C28.3214 26.5178 28.2749 35.2975 27.8851 40.9311C27.7809 42.4388 26.474 43.5765 24.9663 43.4722C23.4586 43.3679 22.3209 42.0611 22.4253 40.5534C22.8022 35.1045 22.8394 26.5933 22.5851 23.1066Z" fill="#65D536"/>
</svg>
