<svg width="75" height="64" viewBox="0 0 75 64" fill="none" xmlns="http://www.w3.org/2000/svg">
<path fill-rule="evenodd" clip-rule="evenodd" d="M74.9434 20.6414C74.9434 43.9439 40.3924 62.8057 38.921 63.5847C38.5332 63.7933 38.0997 63.9025 37.6593 63.9025C37.2189 63.9025 36.7855 63.7933 36.3976 63.5847C34.9263 62.8057 0.375244 43.9439 0.375244 20.6414C0.381412 15.1694 2.55789 9.92327 6.4272 6.05396C10.2965 2.18466 15.5426 0.0081818 21.0146 0.00201416C27.8889 0.00201416 33.9076 2.95811 37.6593 7.95484C41.411 2.95811 47.4297 0.00201416 54.304 0.00201416C59.776 0.0081818 65.0221 2.18466 68.8914 6.05396C72.7607 9.92327 74.9372 15.1694 74.9434 20.6414ZM47.0908 20.6053C48.5901 20.7958 49.651 22.1656 49.4605 23.6649C49.0198 27.133 48.6012 35.634 48.6858 41.0952C48.7092 42.6064 47.5032 43.8504 45.9921 43.8738C44.481 43.8972 43.237 42.6912 43.2135 41.1801C43.126 35.5337 43.5498 26.764 44.0312 22.975C44.2217 21.4757 45.5916 20.4148 47.0908 20.6053ZM26.9367 23.1066C26.8268 21.5993 27.9596 20.2882 29.4669 20.1783C30.9742 20.0683 32.2852 21.2011 32.3952 22.7084C32.673 26.5178 32.6266 35.2975 32.2368 40.9311C32.1325 42.4388 30.8257 43.5765 29.318 43.4722C27.8103 43.3679 26.6726 42.0611 26.7769 40.5534C27.1539 35.1045 27.1911 26.5933 26.9367 23.1066Z" fill="#E2317F"/>
</svg>
