<svg width="77" height="67" viewBox="0 0 77 67" fill="none" xmlns="http://www.w3.org/2000/svg">
<mask id="path-1-outside-1_92_463" maskUnits="userSpaceOnUse" x="-4.48672" y="-3.98611" width="85.2083" height="75.2452" fill="black">
<rect fill="white" x="-4.48672" y="-3.98611" width="85.2083" height="75.2452"/>
<path fill-rule="evenodd" clip-rule="evenodd" d="M28.8727 54.6706C29.8537 56.5012 30.986 58.3302 32.2882 60.1386C33.0205 61.1556 32.2873 62.5959 31.0461 62.4227C22.0365 61.1657 17.2021 55.9331 15.5336 49.6395C14.5381 45.8844 12.5574 35.733 14.3697 26.316C9.88552 29.4188 7.5384 32.9589 7.5995 37.0309C7.61933 38.3528 6.38191 39.1628 5.74065 38.0067C3.07552 33.2022 3.94327 24.4222 12.7124 22.3511L12.7141 22.3472C12.2809 21.9629 11.9617 21.4423 11.8301 20.8329C11.5011 19.3091 12.4696 17.8072 13.9933 17.4781C15.1542 17.2275 16.3025 17.7299 16.929 18.6573C19.4561 13.7518 23.7257 9.77857 30.6794 8.14268C31.3419 7.98682 31.9599 7.85203 32.5352 7.73728C33.1058 7.60462 33.7235 7.4726 34.3903 7.34139C41.3386 5.97412 46.8321 7.78764 51.1414 11.1565C51.3672 10.1052 52.1869 9.23061 53.3062 8.98891C54.83 8.65988 56.3319 9.62838 56.661 11.1521C56.7926 11.7615 56.7166 12.3673 56.4807 12.8961C56.4835 12.8986 56.4864 12.9012 56.4892 12.9037C65.8473 10.5579 70.5313 18.4811 70.0733 24.1147C69.9662 25.4323 68.5048 25.2051 67.9775 23.9929C66.2835 20.0989 62.4431 17.8123 56.692 16.9083C56.6695 16.9331 56.6465 16.9575 56.623 16.9815C57.353 17.9562 58.0196 18.9916 58.6143 20.0818C62.8323 27.3329 64.7445 35.5218 65.3096 38.8909C66.3868 45.3122 64.1424 52.0734 56.4543 56.9361C55.3951 57.606 54.1329 56.5966 54.3803 55.3681C54.7541 53.5117 55.0101 51.6923 55.1634 49.9159C52.1094 53.1569 48.1434 55.512 43.5534 56.5032C38.4413 57.6071 33.336 56.8504 28.8727 54.6706Z"/>
</mask>
<path fill-rule="evenodd" clip-rule="evenodd" d="M28.8727 54.6706C29.8537 56.5012 30.986 58.3302 32.2882 60.1386C33.0205 61.1556 32.2873 62.5959 31.0461 62.4227C22.0365 61.1657 17.2021 55.9331 15.5336 49.6395C14.5381 45.8844 12.5574 35.733 14.3697 26.316C9.88552 29.4188 7.5384 32.9589 7.5995 37.0309C7.61933 38.3528 6.38191 39.1628 5.74065 38.0067C3.07552 33.2022 3.94327 24.4222 12.7124 22.3511L12.7141 22.3472C12.2809 21.9629 11.9617 21.4423 11.8301 20.8329C11.5011 19.3091 12.4696 17.8072 13.9933 17.4781C15.1542 17.2275 16.3025 17.7299 16.929 18.6573C19.4561 13.7518 23.7257 9.77857 30.6794 8.14268C31.3419 7.98682 31.9599 7.85203 32.5352 7.73728C33.1058 7.60462 33.7235 7.4726 34.3903 7.34139C41.3386 5.97412 46.8321 7.78764 51.1414 11.1565C51.3672 10.1052 52.1869 9.23061 53.3062 8.98891C54.83 8.65988 56.3319 9.62838 56.661 11.1521C56.7926 11.7615 56.7166 12.3673 56.4807 12.8961C56.4835 12.8986 56.4864 12.9012 56.4892 12.9037C65.8473 10.5579 70.5313 18.4811 70.0733 24.1147C69.9662 25.4323 68.5048 25.2051 67.9775 23.9929C66.2835 20.0989 62.4431 17.8123 56.692 16.9083C56.6695 16.9331 56.6465 16.9575 56.623 16.9815C57.353 17.9562 58.0196 18.9916 58.6143 20.0818C62.8323 27.3329 64.7445 35.5218 65.3096 38.8909C66.3868 45.3122 64.1424 52.0734 56.4543 56.9361C55.3951 57.606 54.1329 56.5966 54.3803 55.3681C54.7541 53.5117 55.0101 51.6923 55.1634 49.9159C52.1094 53.1569 48.1434 55.512 43.5534 56.5032C38.4413 57.6071 33.336 56.8504 28.8727 54.6706Z" fill="#FBDB31"/>
<path d="M32.2882 60.1386L29.7195 61.9883L29.7195 61.9883L32.2882 60.1386ZM28.8727 54.6706L30.2618 51.8264L21.4516 47.5237L26.0827 56.1658L28.8727 54.6706ZM31.0461 62.4227L30.6087 65.5577L30.6087 65.5577L31.0461 62.4227ZM15.5336 49.6395L12.474 50.4507L12.474 50.4507L15.5336 49.6395ZM14.3697 26.316L17.478 26.9143L18.943 19.3024L12.5686 23.7131L14.3697 26.316ZM7.5995 37.0309L10.7645 36.9834L7.5995 37.0309ZM5.74065 38.0067L8.50865 36.4713L8.50865 36.4713L5.74065 38.0067ZM12.7124 22.3511L13.44 25.4317L14.9659 25.0713L15.6038 23.6391L12.7124 22.3511ZM12.7141 22.3472L15.6056 23.6353L16.5489 21.5177L14.8147 19.9793L12.7141 22.3472ZM16.929 18.6573L14.3061 20.4293L17.2966 24.8556L19.7429 20.1069L16.929 18.6573ZM30.6794 8.14268L29.9545 5.06145L29.9545 5.06145L30.6794 8.14268ZM32.5352 7.73728L33.1543 10.8415L33.2033 10.8317L33.2519 10.8204L32.5352 7.73728ZM34.3903 7.34139L35.0014 10.4472L34.3903 7.34139ZM51.1414 11.1565L49.1919 13.6502L53.1743 16.7635L54.2361 11.8214L51.1414 11.1565ZM56.4807 12.8961L53.5901 11.6062L52.6445 13.7251L54.3806 15.2645L56.4807 12.8961ZM56.4892 12.9037L54.3799 15.2639L55.6311 16.3821L57.2589 15.9741L56.4892 12.9037ZM70.0733 24.1147L66.9184 23.8583L66.9184 23.8583L70.0733 24.1147ZM67.9775 23.9929L65.0749 25.2556L65.0749 25.2556L67.9775 23.9929ZM56.692 16.9083L57.1836 13.7814L55.4989 13.5166L54.3511 14.7778L56.692 16.9083ZM56.623 16.9815L54.3593 14.7691L52.464 16.7084L54.0894 18.8789L56.623 16.9815ZM58.6143 20.0818L55.8355 21.5977L55.8563 21.6359L55.8782 21.6734L58.6143 20.0818ZM65.3096 38.8909L62.1879 39.4146L62.1879 39.4146L65.3096 38.8909ZM56.4543 56.9361L58.1463 59.6113L58.1463 59.6113L56.4543 56.9361ZM54.3803 55.3681L57.4833 55.993L57.4833 55.993L54.3803 55.3681ZM55.1634 49.9159L58.317 50.188L59.0992 41.1236L52.8597 47.7451L55.1634 49.9159ZM34.8569 58.2889C33.6379 56.596 32.5792 54.8857 31.6627 53.1755L26.0827 56.1658C27.1282 58.1168 28.3342 60.0644 29.7195 61.9883L34.8569 58.2889ZM30.6087 65.5577C32.6845 65.8473 34.4006 64.724 35.2035 63.2101C35.981 61.7444 35.9679 59.8318 34.8569 58.2889L29.7195 61.9883C29.3409 61.4624 29.3273 60.7784 29.6109 60.2438C29.9199 59.661 30.6488 59.1713 31.4834 59.2877L30.6087 65.5577ZM12.474 50.4507C14.4696 57.9782 20.339 64.1249 30.6087 65.5577L31.4834 59.2877C23.7339 58.2065 19.9346 53.888 18.5933 48.8284L12.474 50.4507ZM11.2614 25.7178C9.31697 35.8211 11.4305 46.5148 12.474 50.4507L18.5933 48.8284C17.6456 45.254 15.7977 35.645 17.478 26.9143L11.2614 25.7178ZM10.7645 36.9834C10.7254 34.3756 12.1541 31.6984 16.1708 28.919L12.5686 23.7131C7.61698 27.1393 4.35143 31.5422 4.43451 37.0784L10.7645 36.9834ZM2.97264 39.5422C3.41389 40.3376 4.17435 41.1692 5.33844 41.5422C6.52267 41.9217 7.65856 41.675 8.49945 41.19C10.0772 40.28 10.788 38.547 10.7645 36.9834L4.43451 37.0784C4.43088 36.8367 4.5328 36.1696 5.33652 35.7061C5.79038 35.4443 6.49791 35.2659 7.27039 35.5135C8.02273 35.7546 8.38804 36.2539 8.50865 36.4713L2.97264 39.5422ZM11.9848 19.2705C6.49501 20.5671 3.23555 24.1008 1.92465 28.1869C0.672361 32.0902 1.22458 36.3909 2.97264 39.5422L8.50865 36.4713C7.59158 34.8181 7.24512 32.3264 7.95271 30.1208C8.60169 28.098 10.1607 26.2062 13.44 25.4317L11.9848 19.2705ZM9.8227 21.0592L9.82098 21.063L15.6038 23.6391L15.6056 23.6353L9.8227 21.0592ZM8.73606 21.501C9.01443 22.7901 9.69395 23.8994 10.6136 24.7151L14.8147 19.9793C14.8679 20.0265 14.9089 20.0945 14.9241 20.1648L8.73606 21.501ZM13.3252 14.3841C10.0926 15.0821 8.03803 18.2685 8.73606 21.501L14.9241 20.1648C14.9641 20.3498 14.8465 20.5322 14.6614 20.5722L13.3252 14.3841ZM19.5519 16.8853C18.2261 14.923 15.7928 13.8512 13.3252 14.3841L14.6614 20.5722C14.5156 20.6037 14.3788 20.5368 14.3061 20.4293L19.5519 16.8853ZM29.9545 5.06145C22.0365 6.9242 17.0359 11.5381 14.1151 17.2077L19.7429 20.1069C21.8763 15.9656 25.4149 12.6329 31.4042 11.2239L29.9545 5.06145ZM31.916 4.63308C31.3012 4.7557 30.6478 4.89835 29.9545 5.06145L31.4042 11.2239C32.036 11.0753 32.6185 10.9484 33.1543 10.8415L31.916 4.63308ZM33.7792 4.2356C33.0814 4.3729 32.4282 4.51238 31.8184 4.65415L33.2519 10.8204C33.7834 10.6969 34.3656 10.5723 35.0014 10.4472L33.7792 4.2356ZM53.0909 8.66271C48.1064 4.76606 41.6887 2.67918 33.7792 4.2356L35.0014 10.4472C40.9885 9.26906 45.5578 10.8092 49.1919 13.6502L53.0909 8.66271ZM54.2361 11.8214C54.2103 11.9416 54.1151 12.0526 53.9744 12.0829L52.6381 5.89488C50.2588 6.40866 48.5242 8.26887 48.0467 10.4916L54.2361 11.8214ZM53.9744 12.0829C53.7893 12.1229 53.6069 12.0053 53.567 11.8202L59.755 10.484C59.057 7.25147 55.8706 5.19685 52.6381 5.89488L53.9744 12.0829ZM53.567 11.8202C53.5518 11.75 53.5611 11.6711 53.5901 11.6062L59.3713 14.186C59.8722 13.0636 60.0334 11.773 59.755 10.484L53.567 11.8202ZM58.5985 10.5436C58.5933 10.5389 58.5873 10.5335 58.5807 10.5278L54.3806 15.2645L54.3799 15.2639L58.5985 10.5436ZM73.2283 24.3711C73.5282 20.6818 72.1779 16.3961 69.2518 13.3311C66.1739 10.1074 61.492 8.3864 55.7196 9.83337L57.2589 15.9741C60.8445 15.0753 63.1836 16.143 64.6728 17.7028C66.3137 19.4214 67.0764 21.9141 66.9184 23.8583L73.2283 24.3711ZM65.0749 25.2556C65.6987 26.6895 67.0612 27.9748 68.8739 28.1527C69.84 28.2475 70.9765 28.0035 71.8986 27.1692C72.805 26.349 73.1546 25.2778 73.2283 24.3711L66.9184 23.8583C66.9385 23.6104 67.0653 23.0049 67.6511 22.4749C68.2526 21.9306 68.9707 21.8011 69.4921 21.8523C70.4155 21.9429 70.7836 22.5085 70.88 22.7301L65.0749 25.2556ZM56.2005 20.0353C61.4198 20.8557 63.9926 22.7678 65.0749 25.2556L70.88 22.7301C68.5743 17.4301 63.4664 14.769 57.1836 13.7814L56.2005 20.0353ZM58.8868 19.1939C58.9365 19.1431 58.9852 19.0914 59.033 19.0389L54.3511 14.7778C54.3538 14.7748 54.3565 14.7719 54.3593 14.7691L58.8868 19.1939ZM61.3931 18.566C60.7257 17.3425 59.9771 16.1797 59.1567 15.0841L54.0894 18.8789C54.7289 19.7328 55.3135 20.6407 55.8355 21.5977L61.3931 18.566ZM68.4314 38.3673C67.8328 34.7988 65.8335 26.197 61.3504 18.4902L55.8782 21.6734C59.8312 28.4688 61.6562 36.2448 62.1879 39.4146L68.4314 38.3673ZM58.1463 59.6113C66.9096 54.0685 69.7197 46.0475 68.4314 38.3673L62.1879 39.4146C63.0539 44.5769 61.3751 50.0783 54.7622 54.2609L58.1463 59.6113ZM51.2772 54.7431C50.9019 56.607 51.6792 58.3546 52.9921 59.3689C54.3482 60.4165 56.3749 60.7316 58.1463 59.6113L54.7622 54.2609C55.4744 53.8105 56.3405 53.9558 56.8625 54.3591C57.3414 54.7291 57.6113 55.3578 57.4833 55.993L51.2772 54.7431ZM52.0098 49.6438C51.8666 51.3037 51.6272 53.0052 51.2772 54.7432L57.4833 55.993C57.8811 54.0181 58.1537 52.0809 58.317 50.188L52.0098 49.6438ZM44.2216 59.5972C49.4687 58.4641 53.9962 55.7701 57.4671 52.0867L52.8597 47.7451C50.2226 50.5436 46.8181 52.5599 42.8853 53.4091L44.2216 59.5972ZM27.4836 57.5149C32.5473 59.9879 38.375 60.8597 44.2216 59.5972L42.8853 53.4091C38.5076 54.3544 34.1246 53.7129 30.2618 51.8264L27.4836 57.5149Z" fill="#E9E9E7" mask="url(#path-1-outside-1_92_463)"/>
<ellipse cx="38.2867" cy="32.1132" rx="23.4793" ry="24.9521" transform="rotate(-12.1853 38.2867 32.1132)" fill="#F7D4B8"/>
<ellipse cx="54.7124" cy="43.5054" rx="5.20578" ry="3.68997" transform="rotate(-12.1853 54.7124 43.5054)" fill="#F0A284"/>
<ellipse cx="28.5" cy="49.1656" rx="5.20578" ry="3.68997" transform="rotate(-12.1853 28.5 49.1656)" fill="#F0A284"/>
<path d="M49.7747 43.4858C50.3223 43.3675 50.7353 43.1133 51.0115 42.7256C51.2813 42.347 51.3933 41.8792 51.42 41.3804C51.4721 40.4092 51.204 39.1677 50.9246 37.8739L50.915 37.8295L50.9054 37.7852C50.6261 36.4914 50.358 35.2498 49.9098 34.3866C49.6796 33.9433 49.3845 33.5634 48.9826 33.3299C48.571 33.0907 48.09 33.0295 47.5423 33.1478C46.9947 33.266 46.5818 33.5203 46.3056 33.908C46.0358 34.2866 45.9238 34.7543 45.897 35.2531C45.8449 36.2243 46.1131 37.4659 46.3925 38.7597L46.4021 38.804L46.4116 38.8484C46.691 40.1422 46.959 41.3838 47.4073 42.247C47.6375 42.6903 47.9325 43.0701 48.3345 43.3037C48.746 43.5428 49.2271 43.604 49.7747 43.4858Z" fill="#201F24" stroke="#201F24" stroke-width="0.72864"/>
<path d="M32.5486 47.2056C33.103 47.0859 33.5216 46.8314 33.8029 46.4438C34.0782 46.0644 34.1941 45.5957 34.2232 45.0955C34.2797 44.1226 34.0114 42.8803 33.7321 41.587L33.7224 41.5421L33.7127 41.4971C33.4335 40.2038 33.1653 38.9615 32.7123 38.0986C32.4794 37.655 32.1804 37.2758 31.7731 37.0439C31.3569 36.8069 30.8706 36.7479 30.3162 36.8676C29.7619 36.9873 29.3432 37.2417 29.0619 37.6294C28.7866 38.0087 28.6707 38.4774 28.6417 38.9776C28.5851 39.9506 28.8534 41.1928 29.1327 42.4861L29.1424 42.5311L29.1521 42.576C29.4314 43.8693 29.6996 45.1116 30.1526 45.9745C30.3855 46.4182 30.6844 46.7973 31.0917 47.0292C31.5079 47.2663 31.9942 47.3253 32.5486 47.2056Z" fill="#201F24" stroke="#201F24" stroke-width="0.72864"/>
<path fill-rule="evenodd" clip-rule="evenodd" d="M32.2882 60.1386C26.1963 51.6786 23.8215 42.7665 23.2712 35.3558L38.2051 32.1309L38.2207 32.1275L52.3675 29.0726C54.9242 36.0501 56.4385 45.1481 54.3803 55.3681C54.1329 56.5966 55.3951 57.606 56.4543 56.9361C64.1424 52.0734 66.3868 45.3122 65.3096 38.8909C64.6593 35.0139 62.2251 24.754 56.5458 16.8857C62.378 17.7738 66.2691 20.066 67.9775 23.9929C68.5048 25.2051 69.9662 25.4323 70.0733 24.1147C70.5359 18.424 65.7517 10.3969 56.2028 12.9783C56.1222 13.0001 56.0398 13.0293 55.967 13.0703C55.3315 13.428 55.0321 14.105 54.9169 14.8074C50.1928 9.27056 43.5579 5.53743 34.3903 7.34139C33.7235 7.4726 33.1058 7.60462 32.5352 7.73728C31.9599 7.85203 31.3419 7.98682 30.6794 8.14268C21.8792 10.213 17.3778 16.0268 15.2668 22.7361C14.9308 22.4054 14.5212 22.1684 14.0327 22.1256C13.9495 22.1183 13.8624 22.1257 13.78 22.1392C4.01671 23.7279 2.97108 33.0139 5.74065 38.0067C6.38191 39.1628 7.61933 38.3528 7.5995 37.0309C7.5384 32.9589 9.88552 29.4188 14.3697 26.316C12.5574 35.733 14.5381 45.8844 15.5336 49.6395C17.2021 55.9331 22.0365 61.1657 31.0461 62.4227C32.2873 62.5959 33.0205 61.1556 32.2882 60.1386Z" fill="#E2317F"/>
<circle cx="15.2926" cy="23.4958" r="2.82257" transform="rotate(-12.1853 15.2926 23.4958)" fill="#FBDB31"/>
<circle cx="54.6061" cy="15.0065" r="2.82257" transform="rotate(-12.1853 54.6061 15.0065)" fill="#FBDB31"/>
<circle cx="14.5891" cy="20.2371" r="2.82257" transform="rotate(-12.1853 14.5891 20.2371)" fill="#FBDB31"/>
<path d="M56.661 11.1521C56.99 12.6759 56.0215 14.1778 54.4978 14.5069C52.974 14.8359 51.472 13.8674 51.143 12.3437C50.814 10.8199 51.7825 9.31795 53.3062 8.98892C54.83 8.65988 56.3319 9.62838 56.661 11.1521Z" fill="#FBDB31"/>
</svg>
