<svg width="46" height="49" viewBox="0 0 46 49" fill="none" xmlns="http://www.w3.org/2000/svg">
<path d="M11.3275 9.8353C10.8777 8.15671 11.873 6.43282 13.5516 5.98305C15.2302 5.53327 16.9541 6.52855 17.4038 8.20714L20.42 19.4636C20.9109 18.7133 21.668 18.136 22.6022 17.8857C24.1669 17.4664 25.7683 18.0956 26.6552 19.3396C27.1343 18.4541 27.9561 17.7537 29.0042 17.4728C30.9259 16.9579 32.895 18.0177 33.544 19.8627C34.0329 19.1049 34.7976 18.5255 35.7318 18.2752C37.7446 17.7359 39.8152 18.9313 40.3545 20.9441L42.6339 29.451C44.0728 34.821 40.8868 40.3393 35.5168 41.7782L29.0379 43.5142C28.6582 43.616 28.2799 43.6929 27.901 43.7374C23.5868 44.4375 19.1427 43.3164 15.6596 40.5863L8.23713 34.76C6.86671 33.6863 6.63135 31.7142 7.70506 30.3438C8.77877 28.9733 10.7509 28.738 12.1213 29.8117L17.8951 34.3458L11.3275 9.8353Z" fill="#303031"/>
<path fill-rule="evenodd" clip-rule="evenodd" d="M15.6596 40.5863L8.23707 34.7601C6.86665 33.6863 6.63129 31.7142 7.705 30.3438C8.77871 28.9734 10.7508 28.738 12.1213 29.8117L17.895 34.3458L11.3274 9.83533C10.8777 8.15674 11.8729 6.43285 13.5515 5.98308C15.2301 5.5333 16.954 6.52858 17.4038 8.20717L20.4199 19.4636C20.8498 18.8066 21.4838 18.2822 22.2622 17.9939C22.3727 17.953 22.4861 17.9168 22.6022 17.8857C23.4027 17.6712 24.2127 17.7312 24.9318 18.0074C25.6183 18.2712 26.2219 18.7321 26.6551 19.3396C27.0024 18.6979 27.5296 18.1533 28.1926 17.7952C28.4444 17.6592 28.7157 17.5501 29.0042 17.4728C30.1483 17.1662 31.3093 17.4179 32.1985 18.0612C32.8027 18.4983 33.2814 19.1163 33.544 19.8627C33.9506 19.2324 34.548 18.7256 35.2751 18.4288C35.4222 18.3688 35.5746 18.3173 35.7318 18.2752C37.7446 17.7359 39.8151 18.9313 40.3545 20.9441L42.6339 29.451C44.0728 34.821 40.8867 40.3393 35.5168 41.7782L29.0379 43.5142C28.6581 43.616 28.2798 43.6929 27.901 43.7375C23.5867 44.4376 19.1427 43.3164 15.6596 40.5863ZM28.2019 45.8767C23.3105 46.6577 18.2759 45.3813 14.3272 42.2863L14.326 42.2853L6.905 36.4602C4.5916 34.6477 4.19857 31.3171 6.00483 29.0117C7.81735 26.6983 11.1479 26.3053 13.4533 28.1115L13.4552 28.113L14.1311 28.6438L9.24116 10.3943C8.48265 7.56354 10.1617 4.65532 12.9925 3.89681C15.8233 3.1383 18.7315 4.81736 19.49 7.64816L21.7016 15.9019C21.8137 15.8646 21.9276 15.8304 22.0432 15.7994C23.5924 15.3843 25.1621 15.6229 26.4603 16.3434C27.0377 15.9158 27.7046 15.585 28.4451 15.3866C30.4466 14.8503 32.4815 15.4014 33.9235 16.6793C34.3135 16.4727 34.7316 16.3072 35.1728 16.1889C38.3378 15.3409 41.5927 17.2201 42.4407 20.3851L44.7202 28.892C46.4678 35.4142 42.598 42.1169 36.0758 43.8645L29.5969 45.6005C29.1494 45.7204 28.6839 45.8174 28.2019 45.8767Z" fill="#C0BFC2"/>
</svg>
