<svg width="67" height="65" viewBox="0 0 67 65" fill="none" xmlns="http://www.w3.org/2000/svg">
<path fill-rule="evenodd" clip-rule="evenodd" d="M10.2109 51.8186C9.73129 54.8033 10.4551 57.6203 12.1935 59.8651C14.1315 62.1151 16.8897 63.5879 19.6853 63.6628C21.4825 63.7109 23.0908 63.3544 24.51 62.593L30.7913 59.3642C31.8058 58.7919 33.0093 58.6243 34.2074 58.6564C35.2058 58.6832 36.4207 59.1326 37.1813 59.5354C37.3514 59.6255 37.6979 59.7994 38.1474 60.0251L38.1475 60.0251C39.7079 60.8084 42.5095 62.2148 43.4858 62.9017C44.7433 63.7864 46.4544 63.9804 47.8522 64.0178C50.8475 64.0981 53.6806 62.7752 55.7417 60.4324C57.8028 58.0896 58.4768 55.31 57.958 52.2987L56.7474 45.2721C56.4069 43.0648 57.0702 40.6846 58.7105 39.1299L63.8418 34.0717C66.7124 31.351 67.6182 27.3786 66.5163 23.7521C65.4145 20.1256 62.289 17.444 58.5056 16.943L51.3382 15.9516C49.147 15.6931 47.1876 14.2418 46.2426 12.2181L43.0191 5.73711C41.3129 2.29424 37.9717 0.206391 34.1776 0.104732C30.1838 -0.0022781 26.7302 2.10334 24.8367 5.64959L21.6702 11.9594C20.6182 13.9295 18.7782 15.4789 16.3766 15.6144L9.3554 16.6252C5.54526 17.1226 2.47502 19.838 1.18058 23.4003C-0.113864 26.9626 0.977263 30.9885 3.70335 33.6594L8.76685 38.591C10.3216 40.2313 11.0615 42.4493 10.8029 44.6405L10.2109 51.8186ZM43.375 17.574C44.8743 17.7645 45.9352 19.1343 45.7447 20.6336C45.304 24.1016 44.8854 32.6027 44.97 38.0639C44.9935 39.575 43.7874 40.819 42.2763 40.8425C40.7652 40.8659 39.5212 39.6599 39.4977 38.1487C39.4102 32.5024 39.834 23.7327 40.3154 19.9437C40.506 18.4444 41.8758 17.3835 43.375 17.574ZM23.221 20.0752C23.1111 18.5679 24.2438 17.2569 25.7511 17.1469C27.2585 17.037 28.5695 18.1698 28.6794 19.6771C28.9573 23.4864 28.9108 32.2662 28.5211 37.8998C28.4168 39.4075 27.11 40.5452 25.6023 40.4409C24.0946 40.3366 22.9569 39.0298 23.0612 37.5221C23.4382 32.0732 23.4753 23.5619 23.221 20.0752Z" fill="#FBDB31"/>
</svg>
