<svg width="55" height="56" viewBox="0 0 55 56" fill="none" xmlns="http://www.w3.org/2000/svg">
<g clip-path="url(#clip0_116_1355)">
<mask id="mask0_116_1355" style="mask-type:luminance" maskUnits="userSpaceOnUse" x="0" y="0" width="55" height="56">
<path d="M0 0H55V56H0V0Z" fill="white"/>
</mask>
<g mask="url(#mask0_116_1355)">
<path fill-rule="evenodd" clip-rule="evenodd" d="M6.875 17.5H13.75L22.2819 8.81299C23.1318 7.94782 24.2146 7.35865 25.3934 7.11998C26.5722 6.88131 27.794 7.00386 28.9044 7.47212C30.0147 7.94038 30.9638 8.73333 31.6316 9.75073C32.2995 10.7681 32.656 11.9643 32.6562 13.188V42.812C32.656 44.0357 32.2995 45.2319 31.6316 46.2493C30.9638 47.2667 30.0147 48.0596 28.9044 48.5279C27.794 48.9961 26.5722 49.1187 25.3934 48.88C24.2146 48.6413 23.1318 48.0522 22.2819 47.187L13.75 38.5H6.875C5.05164 38.5 3.30295 37.7625 2.01364 36.4497C0.724328 35.137 0 33.3565 0 31.5V24.5C0 22.6435 0.724328 20.863 2.01364 19.5502C3.30295 18.2375 5.05164 17.5 6.875 17.5ZM48.6819 45.8605C47.7709 46.977 46.1278 46.9665 45.1206 45.9445C44.1169 44.919 44.1306 43.2635 45.0141 42.1295C48.1489 38.1124 49.8517 33.1308 49.8438 28C49.8517 22.8692 48.1489 17.8876 45.0141 13.8705C44.1306 12.7365 44.1169 11.081 45.1206 10.0555C46.1278 9.03349 47.7709 9.02649 48.6819 10.1395C52.7747 15.1574 55.0104 21.4773 55 28C55 34.79 52.6281 41.013 48.6819 45.8605ZM41.3325 38.388C40.4869 39.5535 38.8369 39.543 37.8297 38.5175C36.8225 37.492 36.8534 35.8435 37.6234 34.622C38.8724 32.6478 39.5348 30.3483 39.5312 28C39.5312 25.5605 38.83 23.2855 37.6234 21.378C36.8534 20.16 36.8225 18.508 37.8297 17.4825C38.8369 16.457 40.4869 16.4465 41.3359 17.612C43.4397 20.517 44.6875 24.115 44.6875 28C44.6933 31.7396 43.517 35.3818 41.3325 38.388Z" fill="#F5F5F5"/>
</g>
</g>
<defs>
<clipPath id="clip0_116_1355">
<rect width="55" height="56" fill="white"/>
</clipPath>
</defs>
</svg>
